<svg viewBox="0 0 21 24" xmlns="http://www.w3.org/2000/svg">
<path d="M18.75 3H16.5V0.5625C16.5 0.28125 16.2188 0 15.9375 0H15.5625C15.2344 0 15 0.28125 15 0.5625V3H6V0.5625C6 0.28125 5.71875 0 5.4375 0H5.0625C4.73438 0 4.5 0.28125 4.5 0.5625V3H2.25C0.984375 3 0 4.03125 0 5.25V21.75C0 23.0156 0.984375 24 2.25 24H18.75C19.9688 24 21 23.0156 21 21.75V5.25C21 4.03125 19.9688 3 18.75 3ZM2.25 4.5H18.75C19.125 4.5 19.5 4.875 19.5 5.25V7.5H1.5V5.25C1.5 4.875 1.82812 4.5 2.25 4.5ZM18.75 22.5H2.25C1.82812 22.5 1.5 22.1719 1.5 21.75V9H19.5V21.75C19.5 22.1719 19.125 22.5 18.75 22.5Z"/>
</svg>
