<svg viewBox="0 0 17 12" xmlns="http://www.w3.org/2000/svg">
<path d="M16.0469 5.71875H15.4375V3.28125C15.4375 2.62109 14.8789 2.0625 14.2188 2.0625H13.4062C13.2539 2.0625 13.127 2.11328 13 2.13867V1.65625C13 0.996094 12.4414 0.4375 11.7812 0.4375H10.9688C10.2832 0.4375 9.75 0.996094 9.75 1.65625V5.71875H6.5V1.65625C6.5 0.996094 5.94141 0.4375 5.28125 0.4375H4.46875C3.7832 0.4375 3.25 0.996094 3.25 1.65625V2.13867C3.12305 2.11328 2.9707 2.0625 2.84375 2.0625H2.03125C1.3457 2.0625 0.8125 2.62109 0.8125 3.28125V5.71875H0.203125C0.0761719 5.71875 0 5.82031 0 5.92188V6.32812C0 6.45508 0.0761719 6.53125 0.203125 6.53125H0.8125V8.96875C0.8125 9.6543 1.3457 10.1875 2.03125 10.1875H2.84375C2.9707 10.1875 3.12305 10.1621 3.25 10.1367V10.5938C3.25 11.2793 3.7832 11.8125 4.46875 11.8125H5.28125C5.94141 11.8125 6.5 11.2793 6.5 10.5938V6.53125H9.75V10.5938C9.75 11.2793 10.2832 11.8125 10.9688 11.8125H11.7812C12.4414 11.8125 13 11.2793 13 10.5938V10.1367C13.127 10.1621 13.2539 10.1875 13.4062 10.1875H14.2188C14.8789 10.1875 15.4375 9.6543 15.4375 8.96875V6.53125H16.0469C16.1484 6.53125 16.25 6.45508 16.25 6.32812V5.92188C16.25 5.82031 16.1484 5.71875 16.0469 5.71875ZM2.84375 9.375H2.03125C1.80273 9.375 1.625 9.19727 1.625 8.96875V3.28125C1.625 3.07812 1.80273 2.875 2.03125 2.875H2.84375C3.04688 2.875 3.25 3.07812 3.25 3.28125V8.96875C3.25 9.19727 3.04688 9.375 2.84375 9.375ZM5.6875 10.5938C5.6875 10.8223 5.48438 11 5.28125 11H4.46875C4.24023 11 4.0625 10.8223 4.0625 10.5938V1.65625C4.0625 1.45312 4.24023 1.25 4.46875 1.25H5.28125C5.48438 1.25 5.6875 1.45312 5.6875 1.65625V10.5938ZM12.1875 10.5938C12.1875 10.8223 11.9844 11 11.7812 11H10.9688C10.7402 11 10.5625 10.8223 10.5625 10.5938V1.65625C10.5625 1.45312 10.7402 1.25 10.9688 1.25H11.7812C11.9844 1.25 12.1875 1.45312 12.1875 1.65625V10.5938ZM14.625 8.96875C14.625 9.19727 14.4219 9.375 14.2188 9.375H13.4062C13.1777 9.375 13 9.19727 13 8.96875V3.28125C13 3.07812 13.1777 2.875 13.4062 2.875H14.2188C14.4219 2.875 14.625 3.07812 14.625 3.28125V8.96875Z"/>
</svg>
