<svg viewBox="0 0 30 23" xmlns="http://www.w3.org/2000/svg">
<path d="M28.7207 20.707C28.7207 20.6582 27.6465 19.4863 26.9141 18.0215C28.2324 16.7031 29.0625 15.043 29.0625 13.1875C29.0625 9.28125 25.3027 6.05859 20.4199 5.52148C18.9062 2.68945 15.293 0.6875 11.0938 0.6875C5.47852 0.6875 0.9375 4.20312 0.9375 8.5C0.9375 10.3066 1.71875 11.9668 3.08594 13.334C2.30469 14.7988 1.23047 15.9707 1.23047 16.0195C0.9375 16.3125 0.839844 16.8008 0.986328 17.2402C1.18164 17.6309 1.57227 17.9238 2.06055 17.9238C4.64844 17.9238 6.74805 16.8984 8.16406 16.0195C8.60352 16.1172 9.04297 16.166 9.53125 16.2637C11.0449 19.0469 14.6582 21.0488 18.9062 21.0488C19.8828 21.0488 20.8594 20.9023 21.7871 20.707C23.2031 21.5859 25.3027 22.6113 27.9395 22.6113C28.3789 22.6113 28.7695 22.3184 28.9648 21.9277C29.1113 21.4883 29.0625 21 28.7207 20.707ZM8.50586 14.457L7.87109 14.3105L7.28516 14.7012C6.30859 15.3359 4.84375 16.0684 3.03711 16.2637C3.42773 15.7266 4.01367 14.9453 4.45312 14.0176L4.99023 12.9922L4.16016 12.2109C3.37891 11.4297 2.5 10.209 2.5 8.5C2.5 5.08203 6.35742 2.25 11.0938 2.25C15.8301 2.25 19.6875 5.08203 19.6875 8.5C19.6875 11.9668 15.8301 14.75 11.0938 14.75C10.2148 14.75 9.33594 14.6523 8.50586 14.457ZM22.666 19.3887L22.0801 18.998L21.4453 19.1934C20.6152 19.3887 19.7363 19.4863 18.9062 19.4863C15.6836 19.4863 12.9492 18.2168 11.4355 16.3125C16.8555 16.166 21.25 12.748 21.25 8.5C21.25 8.06055 21.1523 7.62109 21.0547 7.18164C24.7656 7.86523 27.5 10.3066 27.5 13.1875C27.5 14.8965 26.5723 16.1172 25.791 16.8984L25.0098 17.6797L25.498 18.7051C25.9375 19.6328 26.5234 20.4141 26.9141 20.9512C25.1074 20.7559 23.6426 20.0234 22.666 19.3887Z"/>
</svg>
