<svg viewBox="0 0 72 100" xmlns="http://www.w3.org/2000/svg">
<path d="M37.0469 0.375C22.3516 0.375 11.7168 6.5625 3.78906 18.5508C0.888672 22.6113 1.85547 28.0254 5.91602 31.1191L14.0371 37.3066C17.9043 40.207 23.7051 39.627 26.7988 35.5664C31.0527 30.3457 32.4062 29.3789 35.6934 29.3789C37.8203 29.3789 40.7207 30.7324 40.7207 32.8594C40.7207 37.8867 19.4512 36.9199 19.4512 56.6426V59.1562C19.4512 62.4434 20.998 65.1504 23.3184 66.6973C19.4512 70.1777 16.9375 75.2051 16.9375 80.8125C16.9375 91.0605 25.252 99.375 35.5 99.375C45.5547 99.375 54.0625 91.0605 54.0625 80.8125C54.0625 75.2051 51.3555 70.1777 47.4883 66.6973C49.8086 65.1504 51.3555 62.4434 51.3555 59.1562V58.3828C56.1895 54.709 71.4648 49.6816 71.4648 31.3125C71.4648 13.7168 54.0625 0.375 37.0469 0.375ZM35.5 93.1875C28.5391 93.1875 23.125 87.7734 23.125 80.8125C23.125 74.0449 28.5391 68.4375 35.5 68.4375C42.2676 68.4375 47.875 74.0449 47.875 80.8125C47.875 87.7734 42.2676 93.1875 35.5 93.1875ZM45.168 57.2227V59.1562C45.168 60.8965 43.6211 62.25 42.0742 62.25H28.7324C27.1855 62.25 25.6387 60.8965 25.6387 59.1562V56.6426C25.6387 39.8203 46.9082 45.4277 46.9082 32.8594C46.9082 26.6719 40.7207 23.1914 35.6934 23.1914C29.3125 23.1914 26.2188 26.2852 21.9648 31.6992C20.998 33.0527 19.0645 33.2461 17.7109 32.2793L9.58984 26.0918C8.23633 25.125 7.84961 23.3848 8.81641 22.0312C15.3906 12.1699 23.8984 6.5625 37.0469 6.5625C50.7754 6.5625 65.2773 17.3906 65.2773 31.3125C65.2773 50.0684 45.168 50.2617 45.168 57.2227Z" />
</svg>
