<svg viewBox="0 0 2 9" xmlns="http://www.w3.org/2000/svg">
<path d="M0.875 3.875C0.382812 3.875 0 4.28516 0 4.75C0 5.24219 0.382812 5.625 0.875 5.625C1.33984 5.625 1.75 5.24219 1.75 4.75C1.75 4.28516 1.33984 3.875 0.875 3.875ZM0 1.46875C0 1.96094 0.382812 2.34375 0.875 2.34375C1.33984 2.34375 1.75 1.96094 1.75 1.46875C1.75 1.00391 1.33984 0.59375 0.875 0.59375C0.382812 0.59375 0 1.00391 0 1.46875ZM0 8.03125C0 8.52344 0.382812 8.90625 0.875 8.90625C1.33984 8.90625 1.75 8.52344 1.75 8.03125C1.75 7.56641 1.33984 7.15625 0.875 7.15625C0.382812 7.15625 0 7.56641 0 8.03125Z"/>
</svg>
