<svg viewBox="0 0 27 22" xmlns="http://www.w3.org/2000/svg">
<path d="M25.9219 9.8125H22.3125V6.20312C22.3125 6.03906 22.1484 5.875 21.9844 5.875H21.3281C21.123 5.875 21 6.03906 21 6.20312V9.8125H17.3906C17.1855 9.8125 17.0625 9.97656 17.0625 10.1406V10.7969C17.0625 11.002 17.1855 11.125 17.3906 11.125H21V14.7344C21 14.9395 21.123 15.0625 21.3281 15.0625H21.9844C22.1484 15.0625 22.3125 14.9395 22.3125 14.7344V11.125H25.9219C26.0859 11.125 26.25 11.002 26.25 10.7969V10.1406C26.25 9.97656 26.0859 9.8125 25.9219 9.8125ZM12.8379 12.4375C11.6484 12.4375 11.1152 13.0938 9.1875 13.0938C7.21875 13.0938 6.68555 12.4375 5.49609 12.4375C2.46094 12.4375 0 14.9395 0 17.9746V19.6562C0 20.7637 0.861328 21.625 1.96875 21.625H16.4062C17.4727 21.625 18.375 20.7637 18.375 19.6562V17.9746C18.375 14.9395 15.873 12.4375 12.8379 12.4375ZM17.0625 19.6562C17.0625 20.0254 16.7344 20.3125 16.4062 20.3125H1.96875C1.59961 20.3125 1.3125 20.0254 1.3125 19.6562V17.9746C1.3125 15.6367 3.1582 13.75 5.49609 13.75C6.31641 13.75 7.0957 14.4062 9.1875 14.4062C11.2383 14.4062 12.0586 13.75 12.8379 13.75C15.1758 13.75 17.0625 15.6367 17.0625 17.9746V19.6562ZM9.1875 11.125C12.0586 11.125 14.4375 8.78711 14.4375 5.875C14.4375 3.00391 12.0586 0.625 9.1875 0.625C6.27539 0.625 3.9375 3.00391 3.9375 5.875C3.9375 8.78711 6.27539 11.125 9.1875 11.125ZM9.1875 1.9375C11.3203 1.9375 13.125 3.74219 13.125 5.875C13.125 8.04883 11.3203 9.8125 9.1875 9.8125C7.01367 9.8125 5.25 8.04883 5.25 5.875C5.25 3.74219 7.01367 1.9375 9.1875 1.9375Z" />
</svg>
