<svg viewBox="0 0 14 15" fill="none" xmlns="http://www.w3.org/2000/svg">
<path d="M5.03125 4.03125C5.03125 3.83984 4.86719 3.67578 4.67578 3.67578C4.56641 3.67578 4.48438 3.70312 4.42969 3.78516L3.63672 4.55078C3.58203 4.63281 3.55469 4.71484 3.55469 4.79688C3.55469 4.98828 3.69141 5.15234 3.88281 5.15234H4.375C4.48438 5.15234 4.56641 5.125 4.62109 5.04297L4.92188 4.76953C4.97656 4.6875 5.00391 4.60547 5.00391 4.52344V4.03125H5.03125ZM6.78125 0.96875C3.03516 0.96875 0 4.00391 0 7.75C0 11.4961 3.03516 14.5312 6.78125 14.5312C10.5273 14.5312 13.5625 11.4961 13.5625 7.75C13.5625 4.00391 10.5273 0.96875 6.78125 0.96875ZM8.09375 13.5195V12.5625C8.09375 11.8516 7.49219 11.25 6.78125 11.25H6.20703C6.09766 11.25 5.85156 11.168 5.76953 11.1133L5.16797 10.6484C5.08594 10.5938 5.03125 10.4844 5.03125 10.375V9.71875C5.03125 9.58203 5.08594 9.47266 5.19531 9.39062L6.37109 8.67969C6.42578 8.65234 6.48047 8.625 6.5625 8.625H7.41016C7.49219 8.625 7.57422 8.67969 7.65625 8.73438L9.07812 9.9375H9.89844L10.3906 10.4297C10.6367 10.6758 10.9922 10.8125 11.3477 10.8125H11.8125C10.9922 12.1797 9.65234 13.1641 8.09375 13.5195ZM12.25 9.9375H11.3477C11.2109 9.9375 11.1016 9.91016 10.9922 9.80078L10.5273 9.33594C10.3633 9.17188 10.1445 9.0625 9.89844 9.0625H9.40625L8.23047 8.05078C8.01172 7.85938 7.71094 7.75 7.41016 7.75H6.5625C6.34375 7.75 6.125 7.83203 5.93359 7.94141L4.75781 8.65234C4.375 8.87109 4.15625 9.28125 4.15625 9.71875V10.375C4.15625 10.7578 4.32031 11.1133 4.64844 11.3594L5.25 11.8242C5.49609 11.9883 5.93359 12.125 6.20703 12.125H6.78125C7 12.125 7.21875 12.3438 7.21875 12.5625V13.6562C7.05469 13.6562 6.91797 13.6562 6.78125 13.6562C3.52734 13.6562 0.875 11.0312 0.875 7.75C0.875 4.52344 3.5 1.87109 6.75391 1.84375L6.34375 2.17188C6.04297 2.36328 5.90625 2.69141 5.90625 3.01953V3.64844C5.90625 3.83984 5.98828 4.11328 6.04297 4.25C6.04297 4.33203 5.46875 4.66016 5.38672 4.76953C5.14062 5.01562 5.03125 5.31641 5.03125 5.64453V6.08203C5.03125 6.76562 5.57812 7.33984 6.26172 7.33984H6.94531C7.24609 7.33984 7.51953 7.23047 7.73828 7.03906C7.84766 7.09375 7.98438 7.09375 8.09375 7.09375H8.44922C9.16016 7.09375 9.35156 6.54688 9.46094 6.51953C9.59766 6.76562 9.81641 6.95703 10.0898 7.03906C9.98047 7.44922 10.0625 7.88672 10.3633 8.1875L10.8555 8.70703C11.1016 8.95312 11.4297 9.08984 11.7578 9.08984H12.5234C12.4414 9.39062 12.3594 9.66406 12.25 9.9375ZM11.7578 8.21484C11.6758 8.21484 11.5664 8.16016 11.5117 8.10547L10.9922 7.55859C10.9375 7.53125 10.9102 7.44922 10.9102 7.39453C10.9102 7.3125 10.9375 7.23047 10.9922 7.17578C11.3477 6.84766 11.293 6.95703 11.293 6.71094C11.293 6.62891 11.2656 6.57422 11.2109 6.51953L10.9922 6.30078C10.9375 6.24609 10.8828 6.21875 10.8008 6.21875H10.4453C10.1992 6.21875 10.0898 5.94531 10.2539 5.78125L10.4727 5.58984C10.5273 5.53516 10.582 5.50781 10.6641 5.50781H10.8828C11.0195 5.50781 11.1562 5.39844 11.1562 5.23438V4.96094C11.1562 4.82422 11.0195 4.71484 10.8828 4.71484H10.1172C9.92578 4.71484 9.76172 4.87891 9.76172 5.07031V5.23438C9.76172 5.39844 9.65234 5.53516 9.48828 5.5625L8.77734 5.80859C8.66797 5.86328 8.64062 5.94531 8.64062 6.02734C8.64062 6.13672 8.55859 6.21875 8.47656 6.21875H8.09375C7.98438 6.21875 7.90234 6.13672 7.90234 6.02734C7.90234 5.80859 7.57422 5.80859 7.49219 5.94531C7.24609 6.30078 7.19141 6.46484 6.94531 6.46484H6.26172C6.07031 6.46484 5.90625 6.30078 5.90625 6.08203V5.64453C5.90625 5.53516 5.93359 5.45312 5.98828 5.37109C6.53516 4.98828 6.80859 4.90625 6.80859 4.52344C6.80859 4.44141 6.86328 4.35938 6.94531 4.33203L7.84766 4.03125C7.90234 4.03125 7.92969 4.00391 7.95703 3.97656L8.55859 3.34766C8.69531 3.21094 8.66797 2.96484 8.39453 2.96484H7.90234L7.54688 3.45703V3.64844C7.54688 3.75781 7.46484 3.83984 7.35547 3.83984H6.94531C6.86328 3.83984 6.78125 3.75781 6.78125 3.64844V3.01953C6.78125 2.96484 6.80859 2.91016 6.83594 2.88281L8.03906 2.00781C10.6914 2.58203 12.6875 4.93359 12.6875 7.75C12.6875 7.91406 12.6602 8.05078 12.6602 8.21484H11.7578Z" fill="#5EC2A8"/>
</svg>
