<svg viewBox="0 0 562 248" fill="none" xmlns="http://www.w3.org/2000/svg">
<g opacity="0.5">
<path d="M304.101 49.5C257.601 49.5 213.401 67.4 180.101 99.1L180.501 99.7C196.901 125.5 229.701 135.6 257.801 123.3C272.201 117 288.001 113.6 304.201 113.6C378.401 113.6 436.501 183.9 415.401 261.4C401.701 311.6 354.401 345.6 302.301 344.8C256.701 344.1 229.801 316.1 190.701 258L140.001 178.7C101.701 118.1 58.3006 49.5 -30.9994 49.5C-135.499 49.5 -219.399 139 -210.099 245.4C-202.699 330.1 -138.599 396.9 -54.1994 407.6C1.50061 414.6 55.5006 396 94.3006 358.1C77.8006 332.1 44.6006 322 16.6006 334.6C1.80061 341.3 -14.2994 344.8 -30.9994 344.8C-101.899 344.8 -158.099 280.6 -144.599 207.2C-134.399 152 -84.3994 112 -28.2994 113.5C20.3006 114.8 47.4006 152.1 85.9006 212.9L136.801 292.8L137.201 293.5C177.301 353 219.801 406.5 298.701 408.9C387.201 411.5 464.201 351 480.601 263.9C502.101 149.7 414.601 49.5 304.101 49.5Z" fill="url(#paint0_linear_884_5740)"/>
<path d="M483.799 230.5C483.699 241.5 482.699 252.7 480.599 264C478.599 274.4 475.799 284.4 472.199 294L561.399 111.2C536.299 99 507.299 104.6 488.399 123.1L484.099 230.5H483.799Z" fill="url(#paint1_linear_884_5740)"/>
<path d="M428.1 64.5L465.3 149.9C466.3 151.9 467.3 153.9 468.2 155.9C469.7 159.3 471.1 162.7 472.4 166.2L473.7 169.2L473.5 169.3C480.3 188.5 484 209.1 483.8 230.6H484.1L488.4 123.2L492.6 17.2C462 15.9 435.7 36.2 428.1 64.5Z" fill="url(#paint2_linear_884_5740)"/>
<path d="M428.099 64.5L379.999 -46C347.499 -31.9 332.599 6 346.799 38.5L355.299 57C381.599 64.8 405.399 78.6 425.199 96.6C441.699 111.6 455.299 129.7 465.299 149.8L428.099 64.5Z" fill="url(#paint3_linear_884_5740)"/>
</g>
<defs>
<linearGradient id="paint0_linear_884_5740" x1="-210.812" y1="229.297" x2="483.847" y2="229.297" gradientUnits="userSpaceOnUse">
<stop offset="0.05" stop-color="white"/>
<stop offset="0.0828575" stop-color="#DAEEE7"/>
<stop offset="0.1254" stop-color="#B4DFD1"/>
<stop offset="0.1712" stop-color="#93D2BF"/>
<stop offset="0.2201" stop-color="#77C9B1"/>
<stop offset="0.2731" stop-color="#5FC2A7"/>
<stop offset="0.3324" stop-color="#4ABEA0"/>
<stop offset="0.4031" stop-color="#3BBB9C"/>
<stop offset="0.5148" stop-color="#36BA9B"/>
<stop offset="0.5798" stop-color="#3DBC9D"/>
<stop offset="0.6445" stop-color="#51BFA2"/>
<stop offset="0.7092" stop-color="#6BC5AC"/>
<stop offset="0.7738" stop-color="#8ACFBA"/>
<stop offset="0.8385" stop-color="#AEDCCE"/>
<stop offset="0.9022" stop-color="#D8EEE6"/>
<stop offset="0.9488" stop-color="white"/>
</linearGradient>
<linearGradient id="paint1_linear_884_5740" x1="516.729" y1="294.033" x2="516.729" y2="104.738" gradientUnits="userSpaceOnUse">
<stop stop-color="#36BA9B"/>
<stop offset="1" stop-color="white"/>
</linearGradient>
<linearGradient id="paint2_linear_884_5740" x1="460.314" y1="230.524" x2="460.314" y2="17.0809" gradientUnits="userSpaceOnUse">
<stop stop-color="#36BA9B"/>
<stop offset="1" stop-color="white"/>
</linearGradient>
<linearGradient id="paint3_linear_884_5740" x1="403.348" y1="149.857" x2="403.348" y2="-46" gradientUnits="userSpaceOnUse">
<stop stop-color="#36BA9B"/>
<stop offset="1" stop-color="white"/>
</linearGradient>
</defs>
</svg>
