<svg viewBox="0 0 102 56" fill="none" xmlns="http://www.w3.org/2000/svg">
<path d="M92.7103 33.74C92.7013 35.0823 92.5708 36.4211 92.3203 37.74C92.0933 38.967 91.7587 40.1716 91.3203 41.34L102 19.42C100.572 18.724 98.9635 18.4868 97.3952 18.7411C95.8268 18.9953 94.3756 19.7284 93.2403 20.84L92.7303 33.74H92.7103Z" fill="#5DC2A8"/>
<path d="M86 13.7999L90.46 24.0499C90.58 24.2899 90.7 24.5299 90.81 24.7799C90.92 25.0299 91.16 25.5999 91.31 26.0099L91.47 26.3699C92.3115 28.7316 92.7312 31.2228 92.71 33.7299V33.7299L93.22 20.8299L93.73 8.10987C91.988 8.04479 90.2754 8.57193 88.8716 9.6053C87.4677 10.6387 86.4555 12.1173 86 13.7999V13.7999Z" fill="#5DC2A8"/>
<path d="M86.0004 13.8L80.2504 0.540039C78.3757 1.35472 76.9012 2.8805 76.1511 4.78195C75.4011 6.6834 75.4368 8.80489 76.2504 10.68L77.2504 12.91C80.0973 13.7616 82.7385 15.1901 85.0094 17.1067C87.2803 19.0232 89.1324 21.3867 90.4504 24.05L86.0004 13.8Z" fill="#5DC2A8"/>
<path d="M9.32957 33.74L8.81957 20.84C7.68432 19.7284 6.23304 18.9953 4.66471 18.7411C3.09639 18.4868 1.48781 18.724 0.0595703 19.42L10.7096 41.28C10.0192 39.4266 9.57865 37.4896 9.39957 35.52C9.34957 34.92 9.32957 34.33 9.32957 33.74Z" fill="#5DC2A8"/>
<path d="M8.30957 8.12007L8.80957 20.8401L9.31957 33.7401C9.28991 30.6385 9.93479 27.5676 11.2096 24.7401C11.3896 24.3301 11.5796 23.9401 11.7896 23.5501L15.9996 13.8001C15.5453 12.1253 14.5387 10.653 13.1428 9.62206C11.747 8.59108 10.0439 8.06181 8.30957 8.12007V8.12007Z" fill="#5DC2A8"/>
<path d="M21.8198 0.540039L15.9998 13.8L11.7998 23.56C13.1463 21.005 14.99 18.7448 17.2225 16.9124C19.455 15.0801 22.0312 13.7125 24.7998 12.89L25.7998 10.68C26.2046 9.75296 26.4228 8.75519 26.4419 7.74375C26.4609 6.73231 26.2805 5.72704 25.9109 4.78536C25.5413 3.84369 24.9897 2.98407 24.2877 2.25564C23.5858 1.52721 22.7472 0.944236 21.8198 0.540039V0.540039Z" fill="#5DC2A8"/>
<path d="M71.13 12C65.5792 12.0077 60.2454 14.157 56.24 18L56.29 18.07C57.2435 19.5701 58.7012 20.6805 60.4007 21.2012C62.1003 21.7219 63.9299 21.6186 65.56 20.91C67.4593 20.0773 69.521 19.6807 71.5936 19.7494C73.6663 19.8182 75.6972 20.3505 77.5371 21.3072C79.377 22.264 80.9791 23.6208 82.2258 25.2781C83.4724 26.9354 84.3318 28.8509 84.7409 30.884C85.1499 32.917 85.0982 35.0159 84.5896 37.0263C84.0809 39.0368 83.1282 40.9077 81.8015 42.5016C80.4748 44.0954 78.8078 45.3718 76.923 46.2368C75.0382 47.1017 72.9835 47.5334 70.91 47.5C65.44 47.42 62.21 44.05 57.51 37.09L51.43 27.55C46.83 20.24 41.62 12 30.9 12C27.9033 12.0035 24.94 12.6303 22.1985 13.8405C19.457 15.0507 16.9972 16.8178 14.9753 19.0297C12.9534 21.2416 11.4136 23.8498 10.4538 26.6887C9.494 29.5275 9.13514 32.535 9.40001 35.52C9.75541 39.594 11.2611 43.4831 13.7416 46.7343C16.2222 49.9856 19.5755 52.4651 23.4109 53.884C27.2463 55.3028 31.4059 55.6027 35.4052 54.7487C39.4045 53.8946 43.0787 51.9218 46 49.06V49.06C45.0429 47.5476 43.5734 46.4304 41.8602 45.9125C40.1469 45.3947 38.3046 45.511 36.67 46.24C34.7708 47.0963 32.7032 47.5141 30.6206 47.4624C28.5379 47.4107 26.4936 46.8908 24.6392 45.9414C22.7849 44.9919 21.168 43.6372 19.9086 41.9777C18.6491 40.3182 17.7794 38.3965 17.3639 36.3551C16.9484 34.3136 16.9977 32.2048 17.5083 30.1851C18.0188 28.1653 18.9775 26.2864 20.3132 24.6876C21.6489 23.0888 23.3273 21.8112 25.2241 20.9496C27.1208 20.0879 29.1872 19.6642 31.27 19.71C37.11 19.87 40.36 24.35 44.98 31.65L51 41.24L51.06 41.32C55.87 48.46 60.98 54.89 70.44 55.17C73.3001 55.257 76.149 54.7745 78.821 53.7507C81.493 52.7269 83.9348 51.1822 86.0045 49.2063C88.0742 47.2304 89.7305 44.8628 90.8771 42.2412C92.0237 39.6195 92.6377 36.7961 92.6834 33.935C92.7291 31.0739 92.2057 28.2323 91.1435 25.5754C90.0813 22.9184 88.5015 20.4991 86.496 18.4581C84.4905 16.4171 82.0993 14.7951 79.4613 13.6864C76.8234 12.5777 73.9914 12.0045 71.13 12V12Z" fill="#5DC2A8"/>
<path d="M92.7103 33.74C92.7013 35.0823 92.5708 36.4211 92.3203 37.74C92.0933 38.967 91.7587 40.1716 91.3203 41.34L102 19.42C100.572 18.724 98.9635 18.4868 97.3952 18.7411C95.8268 18.9953 94.3756 19.7284 93.2403 20.84L92.7303 33.74H92.7103Z" fill="url(#paint0_linear_0_1)"/>
<path d="M86 13.7999L90.46 24.0499C90.58 24.2899 90.7 24.5299 90.81 24.7799C90.92 25.0299 91.16 25.5999 91.31 26.0099L91.47 26.3699C92.3115 28.7316 92.7312 31.2228 92.71 33.7299V33.7299L93.22 20.8299L93.73 8.10987C91.988 8.04479 90.2754 8.57193 88.8716 9.6053C87.4677 10.6387 86.4555 12.1173 86 13.7999V13.7999Z" fill="url(#paint1_linear_0_1)"/>
<path d="M86.0004 13.8L80.2504 0.540039C78.3757 1.35472 76.9012 2.8805 76.1511 4.78195C75.4011 6.6834 75.4368 8.80489 76.2504 10.68L77.2504 12.91C80.0973 13.7616 82.7385 15.1901 85.0094 17.1067C87.2803 19.0232 89.1324 21.3867 90.4504 24.05L86.0004 13.8Z" fill="url(#paint2_linear_0_1)"/>
<path d="M9.32957 33.74L8.81957 20.84C7.68432 19.7284 6.23304 18.9953 4.66471 18.7411C3.09639 18.4868 1.48781 18.724 0.0595703 19.42L10.7096 41.28C10.0192 39.4266 9.57865 37.4896 9.39957 35.52C9.34957 34.92 9.32957 34.33 9.32957 33.74Z" fill="url(#paint3_linear_0_1)"/>
<path d="M8.30957 8.12007L8.80957 20.8401L9.31957 33.7401C9.28991 30.6385 9.93479 27.5676 11.2096 24.7401C11.3896 24.3301 11.5796 23.9401 11.7896 23.5501L15.9996 13.8001C15.5453 12.1253 14.5387 10.653 13.1428 9.62206C11.747 8.59108 10.0439 8.06181 8.30957 8.12007V8.12007Z" fill="url(#paint4_linear_0_1)"/>
<path d="M21.8198 0.540039L15.9998 13.8L11.7998 23.56C13.1463 21.005 14.99 18.7448 17.2225 16.9124C19.455 15.0801 22.0312 13.7125 24.7998 12.89L25.7998 10.68C26.2046 9.75296 26.4228 8.75519 26.4419 7.74375C26.4609 6.73231 26.2805 5.72704 25.9109 4.78536C25.5413 3.84369 24.9897 2.98407 24.2877 2.25564C23.5858 1.52721 22.7472 0.944236 21.8198 0.540039V0.540039Z" fill="url(#paint5_linear_0_1)"/>
<path opacity="0.5" d="M84.48 37.46C83.641 40.392 81.8543 42.9635 79.3993 44.7727C76.9442 46.5819 73.959 47.5269 70.91 47.46C65.44 47.38 62.21 44.01 57.51 37.05L51.43 27.51C46.83 20.24 41.62 12 30.9 12C27.9033 12.0035 24.94 12.6303 22.1985 13.8405C19.457 15.0507 16.9972 16.8178 14.9753 19.0297C12.9534 21.2416 11.4136 23.8498 10.4538 26.6887C9.494 29.5275 9.13514 32.535 9.40001 35.52C10.29 45.7 15.64 39.76 17.26 30.96C17.8821 27.73 19.6311 24.8259 22.1952 22.7655C24.7593 20.705 27.9718 19.6222 31.26 19.71C37.1 19.87 40.35 24.35 44.97 31.65L51 41.24L51.06 41.32C55.87 48.46 60.98 54.89 70.44 55.17C75.5615 55.3625 80.5822 53.7114 84.5898 50.5167C88.5975 47.3219 91.3261 42.7956 92.28 37.76C94.9 24 87 28.16 84.48 37.46Z" fill="url(#paint6_linear_0_1)"/>
<defs>
<linearGradient id="paint0_linear_0_1" x1="96.6603" y1="41.36" x2="96.6603" y2="18.64" gradientUnits="userSpaceOnUse">
<stop stop-color="#2F63AF"/>
<stop offset="1" stop-color="#2AA9E0" stop-opacity="0"/>
</linearGradient>
<linearGradient id="paint1_linear_0_1" x1="89.89" y1="33.7399" x2="89.89" y2="8.10987" gradientUnits="userSpaceOnUse">
<stop stop-color="#2F63AF"/>
<stop offset="1" stop-color="#2AA9E0" stop-opacity="0"/>
</linearGradient>
<linearGradient id="paint2_linear_0_1" x1="83.0504" y1="24.05" x2="83.0504" y2="0.540039" gradientUnits="userSpaceOnUse">
<stop stop-color="#2F63AF"/>
<stop offset="1" stop-color="#2AA9E0" stop-opacity="0"/>
</linearGradient>
<linearGradient id="paint3_linear_0_1" x1="5.37957" y1="41.28" x2="5.37957" y2="18.64" gradientUnits="userSpaceOnUse">
<stop stop-color="#2F63AF"/>
<stop offset="1" stop-color="#2AA9E0" stop-opacity="0"/>
</linearGradient>
<linearGradient id="paint4_linear_0_1" x1="12.1696" y1="33.7401" x2="12.1696" y2="8.11007" gradientUnits="userSpaceOnUse">
<stop stop-color="#2F63AF"/>
<stop offset="1" stop-color="#2AA9E0" stop-opacity="0"/>
</linearGradient>
<linearGradient id="paint5_linear_0_1" x1="19.1198" y1="23.56" x2="19.1198" y2="0.540039" gradientUnits="userSpaceOnUse">
<stop stop-color="#2F63AF"/>
<stop offset="1" stop-color="#2AA9E0" stop-opacity="0"/>
</linearGradient>
<linearGradient id="paint6_linear_0_1" x1="9.32001" y1="33.59" x2="92.83" y2="33.59" gradientUnits="userSpaceOnUse">
<stop offset="0.05" stop-color="#2AA9E0" stop-opacity="0"/>
<stop offset="0.08" stop-color="#2B9DD8" stop-opacity="0.17"/>
<stop offset="0.12" stop-color="#2C8ECD" stop-opacity="0.39"/>
<stop offset="0.17" stop-color="#2D80C4" stop-opacity="0.58"/>
<stop offset="0.22" stop-color="#2E76BC" stop-opacity="0.73"/>
<stop offset="0.27" stop-color="#2E6DB6" stop-opacity="0.85"/>
<stop offset="0.33" stop-color="#2F67B2" stop-opacity="0.94"/>
<stop offset="0.4" stop-color="#2F64B0" stop-opacity="0.99"/>
<stop offset="0.51" stop-color="#2F63AF"/>
<stop offset="0.58" stop-color="#2F65B0" stop-opacity="0.98"/>
<stop offset="0.65" stop-color="#2F69B3" stop-opacity="0.91"/>
<stop offset="0.71" stop-color="#2E71B9" stop-opacity="0.79"/>
<stop offset="0.78" stop-color="#2D7DC1" stop-opacity="0.63"/>
<stop offset="0.84" stop-color="#2C8BCB" stop-opacity="0.43"/>
<stop offset="0.91" stop-color="#2B9CD7" stop-opacity="0.18"/>
<stop offset="0.95" stop-color="#2AA9E0" stop-opacity="0"/>
</linearGradient>
</defs>
</svg>
