<svg viewBox="0 0 310 203" xmlns="http://www.w3.org/2000/svg">
<path d="M5.05985 116.746L0 129.212C0 129.212 53.803 170.992 75.8977 203.168H94.2818C94.1132 203 50.5985 144.711 5.05985 116.746Z"/>
<path d="M17.8778 90.9709L11.9746 102.932C23.7809 110.176 47.0562 127.696 72.8614 154.482C95.2934 177.899 109.967 203 109.967 203H127.002C87.3663 134.603 17.8778 90.9709 17.8778 90.9709Z" />
<path d="M210.321 116.409C169.505 152.798 158.542 168.97 149.771 184.3C149.771 184.3 116.714 133.929 87.0293 109.334L80.6201 122.474C80.6201 122.474 118.232 155.83 143.194 203.168H154.831C154.831 203.168 165.457 185.143 183.841 164.085C193.286 153.134 206.104 141.51 218.079 131.066C252.824 100.742 281.833 85.917 310 74.6299C308.482 69.5759 307.301 64.3535 306.458 58.9626C294.146 63.8481 244.222 86.2539 210.321 116.409Z" />
<path d="M203.406 50.5394C170.854 71.766 121.773 124.495 121.773 124.495L132.736 135.446C132.736 135.446 175.914 85.5801 210.321 63.0058C256.197 33.0191 292.459 20.7212 304.097 17.3519C304.434 11.4556 305.109 5.7278 306.121 0C276.099 7.91784 247.764 21.5635 203.406 50.5394Z" />
<path d="M214.875 76.82C180.974 104.617 172.035 110.344 140.158 146.059L149.772 157.515C149.772 157.515 180.3 120.621 218.249 94.0034C258.053 65.8698 291.785 50.5395 304.603 44.8117C304.097 39.9262 303.929 34.8723 303.76 29.8184C290.604 35.2092 239.669 56.4358 214.875 76.82Z"/>
<defs>
<linearGradient id="paint0_linear_0_1" x1="47.1409" y1="116.746" x2="47.1409" y2="203.168" gradientUnits="userSpaceOnUse">
<stop stop-opacity="0"/>
<stop offset="1" stop-opacity="0.05"/>
</linearGradient>
<linearGradient id="paint1_linear_0_1" x1="69.4882" y1="90.9709" x2="69.4882" y2="203" gradientUnits="userSpaceOnUse">
<stop stop-opacity="0"/>
<stop offset="1" stop-opacity="0.05"/>
</linearGradient>
<linearGradient id="paint2_linear_0_1" x1="195.31" y1="58.9626" x2="195.31" y2="203.168" gradientUnits="userSpaceOnUse">
<stop stop-opacity="0"/>
<stop offset="1" stop-opacity="0.05"/>
</linearGradient>
<linearGradient id="paint3_linear_0_1" x1="213.947" y1="0" x2="213.947" y2="135.446" gradientUnits="userSpaceOnUse">
<stop stop-opacity="0"/>
<stop offset="1" stop-opacity="0.05"/>
</linearGradient>
<linearGradient id="paint4_linear_0_1" x1="222.381" y1="29.8184" x2="222.381" y2="157.515" gradientUnits="userSpaceOnUse">
<stop stop-opacity="0"/>
<stop offset="1" stop-opacity="0.05"/>
</linearGradient>
</defs>
</svg>
