<svg viewBox="0 0 322 71" xmlns="http://www.w3.org/2000/svg">
<path d="M1 25.1799V19.9099C1 18.6699 1.59 18.1599 2.76 18.1599H31.77C32.77 18.1599 33.24 18.5899 33.24 19.2499C33.1992 19.6506 33.0468 20.0317 32.8 20.3499L16 45.2399H30.89C32.36 45.2399 32.89 45.7599 32.89 46.9299V52.2699C32.89 53.5199 32.38 54.0299 30.89 54.0299H1.46C0.51 53.9999 0 53.6599 0 52.9999C0.0156461 52.6361 0.145057 52.2863 0.37 51.9999L17.28 26.9999H3C1.61 26.9399 1 26.5699 1 25.1799Z"  />
<path d="M152.23 18.1598C153.48 18.1598 154.13 18.7398 154.13 19.9898V22.1798C155.273 20.6681 156.758 19.4486 158.464 18.6213C160.169 17.7939 162.045 17.3822 163.94 17.4198C169.14 17.4198 172.58 19.6198 174.85 23.9398C176.103 21.9101 177.863 20.2416 179.957 19.0984C182.05 17.9552 184.405 17.3767 186.79 17.4198C195.28 17.4198 199.79 23.3498 199.79 34.5498V52.7098C199.79 53.6598 199.42 54.0298 198.54 54.0298H191.15C190.27 54.0298 189.83 53.6598 189.83 52.7098V35.5798C189.83 29.3598 187.71 26.2798 183.46 26.2798C179.21 26.2798 177 29.4998 177 35.5798V52.7098C177 53.6598 176.63 54.0298 175.75 54.0298H168.36C167.48 54.0298 167.04 53.6598 167.04 52.7098V35.5798C167.04 29.4998 164.99 26.2798 160.67 26.2798C156.35 26.2798 154.15 29.4998 154.15 35.5798V52.7098C154.15 53.6598 153.79 54.0298 152.91 54.0298H145.5C144.5 54.0298 144.18 53.6598 144.18 52.7098V19.9998C144.137 19.7504 144.154 19.4943 144.23 19.2528C144.306 19.0113 144.439 18.7914 144.617 18.6114C144.795 18.4315 145.013 18.2966 145.254 18.218C145.495 18.1395 145.75 18.1195 146 18.1598H152.23Z"  />
<path d="M205.74 25.18V20C205.74 18.75 206.26 18.17 207.5 18.17H213.21V9.99999C213.21 8.74999 213.72 8.23999 214.97 8.23999H221.26C222.51 8.23999 223.02 8.74999 223.02 9.99999V18.2H228.88C230.12 18.2 230.64 18.78 230.64 20.03V25.22C230.64 26.47 230.12 26.98 228.88 26.98H223V52.27C223 53.52 222.49 54.03 221.24 54.03H215C213.75 54.03 213.24 53.52 213.24 52.27V26.94H207.5C206.26 26.94 205.74 26.43 205.74 25.18Z"  />
<path d="M245.28 18.1599C246.52 18.1599 247.03 18.6699 247.03 19.9099V22.6199C249.16 19.3999 252.3 17.4199 257.28 17.4199H257.79C259.18 17.4199 259.62 17.9399 259.62 19.3299V25.5499C259.62 26.9399 259.04 27.4499 257.79 27.4499H255.3C249.45 27.4499 247.03 29.8699 247.03 37.0399V52.7099C247.03 53.6599 246.67 54.0299 245.79 54.0299H238.39C237.44 54.0299 237.08 53.6599 237.08 52.7099V19.9099C237.08 18.6699 237.59 18.1599 238.83 18.1599H245.28Z"  />
<path d="M277.49 5.92996C277.428 7.4514 276.779 8.88969 275.68 9.94403C274.582 10.9984 273.118 11.5871 271.595 11.5871C270.073 11.5871 268.609 10.9984 267.51 9.94403C266.411 8.88969 265.763 7.4514 265.7 5.92996C265.668 5.13539 265.796 4.3424 266.077 3.59865C266.359 2.85489 266.788 2.17572 267.338 1.60194C267.889 1.02816 268.55 0.571621 269.281 0.259749C270.013 -0.0521242 270.8 -0.212891 271.595 -0.212891C272.391 -0.212891 273.178 -0.0521242 273.909 0.259749C274.641 0.571621 275.302 1.02816 275.852 1.60194C276.403 2.17572 276.832 2.85489 277.113 3.59865C277.395 4.3424 277.523 5.13539 277.49 5.92996ZM274.7 18.16C275.95 18.16 276.53 18.67 276.53 19.91V52.27C276.53 53.52 275.95 54.03 274.7 54.03H268.34C267.09 54.03 266.58 53.52 266.58 52.27V19.91C266.58 18.67 267.09 18.16 268.34 18.16H274.7Z"  />
<path d="M300.25 18.1599C313.94 18.1599 321.56 24.4499 321.56 35.8699C321.56 47.2899 313.58 53.9999 300 53.9999H297.88C297.22 53.9999 296.93 54.2899 296.93 54.9499V69.1499C296.93 70.3199 296.41 70.8399 295.17 70.8399H288.73C287.48 70.8399 286.97 70.3199 286.97 69.1499V19.8399C286.97 18.5899 287.48 18.1599 288.73 18.1599H300.25ZM300 26.9399H297.88C297.22 26.9399 296.93 27.1599 296.93 27.9399V44.3599C296.93 45.0199 297.22 45.3599 297.88 45.3599H300C307.1 45.3599 311.42 41.9199 311.42 35.9899C311.42 30.0599 307.35 26.9399 300 26.9399Z"  />
<path d="M129.71 37.74C129.701 39.0823 129.571 40.4211 129.32 41.74C129.093 42.967 128.759 44.1716 128.32 45.34L139 23.42C137.572 22.724 135.963 22.4868 134.395 22.7411C132.827 22.9953 131.376 23.7284 130.24 24.84L129.73 37.74H129.71Z" fill="#5DC2A8"/>
<path d="M123 17.7999L127.46 28.0499C127.58 28.2899 127.7 28.5299 127.81 28.7799C127.92 29.0299 128.16 29.5999 128.31 30.0099L128.47 30.3699C129.311 32.7316 129.731 35.2228 129.71 37.7299L130.22 24.8299L130.73 12.1099C128.988 12.0448 127.275 12.5719 125.872 13.6053C124.468 14.6387 123.455 16.1173 123 17.7999Z" fill="#5DC2A8"/>
<path d="M123 17.8L117.25 4.54004C115.376 5.35472 113.901 6.8805 113.151 8.78195C112.401 10.6834 112.437 12.8049 113.25 14.68L114.25 16.91C117.097 17.7616 119.738 19.1901 122.009 21.1067C124.28 23.0232 126.132 25.3867 127.45 28.05L123 17.8Z" fill="#5DC2A8"/>
<path d="M46.3296 37.74L45.8196 24.84C44.6843 23.7284 43.233 22.9953 41.6647 22.7411C40.0964 22.4868 38.4878 22.724 37.0596 23.42L47.7096 45.28C47.0192 43.4266 46.5786 41.4896 46.3996 39.52C46.3496 38.92 46.3296 38.33 46.3296 37.74Z" fill="#5DC2A8"/>
<path d="M45.3096 12.1201L45.8096 24.8401L46.3196 37.7401C46.2899 34.6385 46.9348 31.5676 48.2096 28.7401C48.3896 28.3301 48.5796 27.9401 48.7896 27.5501L52.9996 17.8001C52.5453 16.1253 51.5387 14.653 50.1428 13.6221C48.747 12.5911 47.0439 12.0618 45.3096 12.1201Z" fill="#5DC2A8"/>
<path d="M58.8198 4.54004L52.9998 17.8L48.7998 27.56C50.1463 25.0049 51.99 22.7448 54.2225 20.9124C56.455 19.0801 59.0312 17.7125 61.7998 16.89L62.7998 14.68C63.2046 13.753 63.4228 12.7552 63.4419 11.7438C63.4609 10.7323 63.2805 9.72704 62.9109 8.78536C62.5413 7.84369 61.9897 6.98407 61.2877 6.25564C60.5858 5.52721 59.7472 4.94424 58.8198 4.54004Z" fill="#5DC2A8"/>
<path d="M108.13 16C102.579 16.0077 97.2454 18.157 93.24 22L93.29 22.07C94.2435 23.5701 95.7012 24.6805 97.4007 25.2012C99.1003 25.7219 100.93 25.6186 102.56 24.91C104.459 24.0773 106.521 23.6807 108.594 23.7494C110.666 23.8182 112.697 24.3505 114.537 25.3072C116.377 26.264 117.979 27.6208 119.226 29.2781C120.472 30.9354 121.332 32.8509 121.741 34.884C122.15 36.917 122.098 39.0159 121.59 41.0263C121.081 43.0368 120.128 44.9077 118.801 46.5016C117.475 48.0954 115.808 49.3718 113.923 50.2368C112.038 51.1017 109.984 51.5334 107.91 51.5C102.44 51.42 99.21 48.05 94.51 41.09L88.43 31.55C83.83 24.24 78.62 16 67.9 16C64.9033 16.0035 61.94 16.6303 59.1985 17.8405C56.457 19.0507 53.9972 20.8178 51.9753 23.0297C49.9534 25.2416 48.4136 27.8498 47.4538 30.6887C46.494 33.5275 46.1351 36.535 46.4 39.52C46.7554 43.594 48.2611 47.4831 50.7416 50.7343C53.2222 53.9856 56.5755 56.4651 60.4109 57.884C64.2463 59.3028 68.4059 59.6027 72.4052 58.7487C76.4045 57.8946 80.0787 55.9218 83 53.06C82.0429 51.5476 80.5734 50.4304 78.8602 49.9125C77.1469 49.3947 75.3046 49.511 73.67 50.24C71.7708 51.0963 69.7032 51.5141 67.6206 51.4624C65.5379 51.4107 63.4936 50.8908 61.6392 49.9414C59.7849 48.9919 58.168 47.6372 56.9086 45.9777C55.6491 44.3182 54.7794 42.3965 54.3639 40.3551C53.9484 38.3136 53.9977 36.2048 54.5083 34.1851C55.0188 32.1653 55.9775 30.2864 57.3132 28.6876C58.6489 27.0888 60.3273 25.8112 62.2241 24.9496C64.1208 24.0879 66.1872 23.6642 68.27 23.71C74.11 23.87 77.36 28.35 81.98 35.65L88 45.24L88.06 45.32C92.87 52.46 97.98 58.89 107.44 59.17C110.3 59.257 113.149 58.7745 115.821 57.7507C118.493 56.7269 120.935 55.1822 123.005 53.2063C125.074 51.2304 126.731 48.8628 127.877 46.2412C129.024 43.6195 129.638 40.7961 129.683 37.935C129.729 35.0739 129.206 32.2323 128.143 29.5754C127.081 26.9184 125.501 24.4991 123.496 22.4581C121.49 20.4171 119.099 18.7951 116.461 17.6864C113.823 16.5777 110.991 16.0045 108.13 16Z" fill="#5DC2A8"/>
<path d="M129.71 37.74C129.701 39.0823 129.571 40.4211 129.32 41.74C129.093 42.967 128.759 44.1716 128.32 45.34L139 23.42C137.572 22.724 135.963 22.4868 134.395 22.7411C132.827 22.9953 131.376 23.7284 130.24 24.84L129.73 37.74H129.71Z" fill="url(#paint0_linear_813_4405)"/>
<path d="M123 17.7999L127.46 28.0499C127.58 28.2899 127.7 28.5299 127.81 28.7799C127.92 29.0299 128.16 29.5999 128.31 30.0099L128.47 30.3699C129.311 32.7316 129.731 35.2228 129.71 37.7299L130.22 24.8299L130.73 12.1099C128.988 12.0448 127.275 12.5719 125.872 13.6053C124.468 14.6387 123.455 16.1173 123 17.7999Z" fill="url(#paint1_linear_813_4405)"/>
<path d="M123 17.8L117.25 4.54004C115.376 5.35472 113.901 6.8805 113.151 8.78195C112.401 10.6834 112.437 12.8049 113.25 14.68L114.25 16.91C117.097 17.7616 119.738 19.1901 122.009 21.1067C124.28 23.0232 126.132 25.3867 127.45 28.05L123 17.8Z" fill="url(#paint2_linear_813_4405)"/>
<path d="M46.3296 37.74L45.8196 24.84C44.6843 23.7284 43.233 22.9953 41.6647 22.7411C40.0964 22.4868 38.4878 22.724 37.0596 23.42L47.7096 45.28C47.0192 43.4266 46.5786 41.4896 46.3996 39.52C46.3496 38.92 46.3296 38.33 46.3296 37.74Z" fill="url(#paint3_linear_813_4405)"/>
<path d="M45.3096 12.1201L45.8096 24.8401L46.3196 37.7401C46.2899 34.6385 46.9348 31.5676 48.2096 28.7401C48.3896 28.3301 48.5796 27.9401 48.7896 27.5501L52.9996 17.8001C52.5453 16.1253 51.5387 14.653 50.1428 13.6221C48.747 12.5911 47.0439 12.0618 45.3096 12.1201Z" fill="url(#paint4_linear_813_4405)"/>
<path d="M58.8198 4.54004L52.9998 17.8L48.7998 27.56C50.1463 25.0049 51.99 22.7448 54.2225 20.9124C56.455 19.0801 59.0312 17.7125 61.7998 16.89L62.7998 14.68C63.2046 13.753 63.4228 12.7552 63.4419 11.7438C63.4609 10.7323 63.2805 9.72704 62.9109 8.78536C62.5413 7.84369 61.9897 6.98407 61.2877 6.25564C60.5858 5.52721 59.7472 4.94424 58.8198 4.54004Z" fill="url(#paint5_linear_813_4405)"/>
<path opacity="0.5" d="M121.48 41.46C120.641 44.392 118.854 46.9635 116.399 48.7727C113.944 50.5819 110.959 51.5269 107.91 51.46C102.44 51.38 99.21 48.01 94.51 41.05L88.43 31.51C83.83 24.24 78.62 16 67.9 16C64.9033 16.0035 61.94 16.6303 59.1985 17.8405C56.457 19.0507 53.9972 20.8178 51.9753 23.0297C49.9534 25.2416 48.4136 27.8498 47.4538 30.6887C46.494 33.5275 46.1351 36.535 46.4 39.52C47.29 49.7 52.64 43.76 54.26 34.96C54.8821 31.73 56.6311 28.8259 59.1952 26.7655C61.7593 24.705 64.9718 23.6222 68.26 23.71C74.1 23.87 77.35 28.35 81.97 35.65L88 45.24L88.06 45.32C92.87 52.46 97.98 58.89 107.44 59.17C112.562 59.3625 117.582 57.7114 121.59 54.5167C125.597 51.3219 128.326 46.7956 129.28 41.76C131.9 28 124 32.16 121.48 41.46Z" fill="url(#paint6_linear_813_4405)"/>
<defs>
<linearGradient id="paint0_linear_813_4405" x1="133.66" y1="45.36" x2="133.66" y2="22.64" gradientUnits="userSpaceOnUse">
<stop stop-color="#2F63AF"/>
<stop offset="1" stop-color="#2AA9E0" stop-opacity="0"/>
</linearGradient>
<linearGradient id="paint1_linear_813_4405" x1="126.89" y1="37.7399" x2="126.89" y2="12.1099" gradientUnits="userSpaceOnUse">
<stop stop-color="#2F63AF"/>
<stop offset="1" stop-color="#2AA9E0" stop-opacity="0"/>
</linearGradient>
<linearGradient id="paint2_linear_813_4405" x1="120.05" y1="28.05" x2="120.05" y2="4.54004" gradientUnits="userSpaceOnUse">
<stop stop-color="#2F63AF"/>
<stop offset="1" stop-color="#2AA9E0" stop-opacity="0"/>
</linearGradient>
<linearGradient id="paint3_linear_813_4405" x1="42.3796" y1="45.28" x2="42.3796" y2="22.64" gradientUnits="userSpaceOnUse">
<stop stop-color="#2F63AF"/>
<stop offset="1" stop-color="#2AA9E0" stop-opacity="0"/>
</linearGradient>
<linearGradient id="paint4_linear_813_4405" x1="49.1696" y1="37.7401" x2="49.1696" y2="12.1101" gradientUnits="userSpaceOnUse">
<stop stop-color="#2F63AF"/>
<stop offset="1" stop-color="#2AA9E0" stop-opacity="0"/>
</linearGradient>
<linearGradient id="paint5_linear_813_4405" x1="56.1198" y1="27.56" x2="56.1198" y2="4.54004" gradientUnits="userSpaceOnUse">
<stop stop-color="#2F63AF"/>
<stop offset="1" stop-color="#2AA9E0" stop-opacity="0"/>
</linearGradient>
<linearGradient id="paint6_linear_813_4405" x1="46.32" y1="37.59" x2="129.83" y2="37.59" gradientUnits="userSpaceOnUse">
<stop offset="0.05" stop-color="#2AA9E0" stop-opacity="0"/>
<stop offset="0.08" stop-color="#2B9DD8" stop-opacity="0.17"/>
<stop offset="0.12" stop-color="#2C8ECD" stop-opacity="0.39"/>
<stop offset="0.17" stop-color="#2D80C4" stop-opacity="0.58"/>
<stop offset="0.22" stop-color="#2E76BC" stop-opacity="0.73"/>
<stop offset="0.27" stop-color="#2E6DB6" stop-opacity="0.85"/>
<stop offset="0.33" stop-color="#2F67B2" stop-opacity="0.94"/>
<stop offset="0.4" stop-color="#2F64B0" stop-opacity="0.99"/>
<stop offset="0.51" stop-color="#2F63AF"/>
<stop offset="0.58" stop-color="#2F65B0" stop-opacity="0.98"/>
<stop offset="0.65" stop-color="#2F69B3" stop-opacity="0.91"/>
<stop offset="0.71" stop-color="#2E71B9" stop-opacity="0.79"/>
<stop offset="0.78" stop-color="#2D7DC1" stop-opacity="0.63"/>
<stop offset="0.84" stop-color="#2C8BCB" stop-opacity="0.43"/>
<stop offset="0.91" stop-color="#2B9CD7" stop-opacity="0.18"/>
<stop offset="0.95" stop-color="#2AA9E0" stop-opacity="0"/>
</linearGradient>
</defs>
</svg>
