<svg viewBox="0 0 16 13" xmlns="http://www.w3.org/2000/svg">
<path d="M5.75 1.125C5.59375 0.96875 5.34375 0.96875 5.21875 1.125L5 1.34375C4.84375 1.5 4.84375 1.71875 5 1.875L9.09375 5.96875H0.375C0.15625 5.96875 0 6.15625 0 6.34375V6.65625C0 6.875 0.15625 7.03125 0.375 7.03125H9.09375L4.96875 11.1562C4.84375 11.3125 4.84375 11.5312 4.96875 11.6875L5.21875 11.9062C5.34375 12.0625 5.59375 12.0625 5.75 11.9062L10.875 6.78125C11.0312 6.625 11.0312 6.40625 10.875 6.25L5.75 1.125ZM16 11V2C16 1.1875 15.3125 0.5 14.5 0.5H10.375C10.1562 0.5 10 0.6875 10 0.875V1.125C10 1.34375 10.1562 1.5 10.375 1.5H14.5C14.75 1.5 15 1.75 15 2V11C15 11.2812 14.75 11.5 14.5 11.5H10.375C10.1562 11.5 10 11.6875 10 11.875V12.125C10 12.3438 10.1562 12.5 10.375 12.5H14.5C15.3125 12.5 16 11.8438 16 11Z"/>
</svg>
