<svg viewBox="0 0 13 15" xmlns="http://www.w3.org/2000/svg">
<path d="M8.75 9.82812C8.75 9.66406 8.58594 9.5 8.42188 9.5H6.5625V7.64062C6.5625 7.47656 6.39844 7.3125 6.23438 7.3125H6.01562C5.82422 7.3125 5.6875 7.47656 5.6875 7.64062V9.5H3.82812C3.63672 9.5 3.5 9.66406 3.5 9.82812V10.0469C3.5 10.2383 3.63672 10.375 3.82812 10.375H5.6875V12.2344C5.6875 12.4258 5.82422 12.5625 6.01562 12.5625H6.23438C6.39844 12.5625 6.5625 12.4258 6.5625 12.2344V10.375H8.42188C8.58594 10.375 8.75 10.2383 8.75 10.0469V9.82812ZM12.25 3.8125C12.25 3.10156 11.6484 2.5 10.9375 2.5H9.625V1.07812C9.625 0.914062 9.46094 0.75 9.29688 0.75H9.07812C8.88672 0.75 8.75 0.914062 8.75 1.07812V2.5H3.5V1.07812C3.5 0.914062 3.33594 0.75 3.17188 0.75H2.95312C2.76172 0.75 2.625 0.914062 2.625 1.07812V2.5H1.3125C0.574219 2.5 0 3.10156 0 3.8125V13.4375C0 14.1758 0.574219 14.75 1.3125 14.75H10.9375C11.6484 14.75 12.25 14.1758 12.25 13.4375V3.8125ZM0.875 3.8125C0.875 3.59375 1.06641 3.375 1.3125 3.375H10.9375C11.1562 3.375 11.375 3.59375 11.375 3.8125V5.125H0.875V3.8125ZM11.375 13.4375C11.375 13.6836 11.1562 13.875 10.9375 13.875H1.3125C1.06641 13.875 0.875 13.6836 0.875 13.4375V6H11.375V13.4375Z" />
</svg>
