<svg viewBox="0 0 13 14" xmlns="http://www.w3.org/2000/svg">
<path d="M8.73438 12.584C8.68359 13.168 9.16602 13.625 9.75 13.625H11.1719C11.7305 13.625 12.1875 13.1934 12.1875 12.6602V1.61523C12.1875 1.08203 11.7305 0.625 11.1719 0.625C9.54688 0.625 7.3125 2.70703 7.28711 5.09375C7.28711 6.43945 8.02344 7.55664 9.08984 8.39453L8.73438 12.584ZM8.125 5.09375C8.125 3.11328 10.0293 1.4375 11.1719 1.4375C11.2734 1.4375 11.375 1.51367 11.375 1.61523V12.6602C11.375 12.7363 11.2734 12.8125 11.1719 12.8125H9.75C9.62305 12.8125 9.52148 12.7363 9.54688 12.6602L9.92773 8.01367C8.9375 7.27734 8.125 6.38867 8.125 5.09375ZM6.09375 1.48828C6.01758 1.00586 5.56055 0.625 4.92578 0.625C4.62109 0.625 4.31641 0.726562 4.08789 0.929688C3.85938 0.751953 3.58008 0.625 3.25 0.625C2.89453 0.625 2.61523 0.751953 2.38672 0.929688C2.1582 0.726562 1.85352 0.625 1.54883 0.625C0.914062 0.625 0.457031 1.00586 0.380859 1.48828C0.330078 1.74219 0 3.64648 0 4.43359C0 5.72852 0.660156 6.76953 1.80273 7.25195L1.49805 12.6094C1.47266 13.168 1.9043 13.625 2.48828 13.625H4.01172C4.57031 13.625 5.00195 13.168 4.97656 12.6094L4.69727 7.25195C5.81445 6.76953 6.5 5.72852 6.5 4.43359C6.5 3.64648 6.14453 1.74219 6.09375 1.48828ZM3.85938 6.71875L4.16406 12.6602C4.16406 12.7363 4.08789 12.8125 4.01172 12.8125H2.48828C2.38672 12.8125 2.31055 12.7363 2.31055 12.6602L2.61523 6.71875C1.54883 6.51562 0.8125 5.62695 0.8125 4.43359C0.8125 3.69727 1.16797 1.64062 1.16797 1.64062C1.21875 1.38672 1.9043 1.38672 1.92969 1.64062V4.73828C1.95508 5.04297 2.64062 5.04297 2.66602 4.76367L2.86914 1.64062C2.89453 1.38672 3.58008 1.38672 3.60547 1.64062L3.80859 4.76367C3.83398 5.04297 4.51953 5.04297 4.54492 4.73828V1.64062C4.57031 1.38672 5.25586 1.38672 5.30664 1.64062C5.30664 1.64062 5.66211 3.69727 5.66211 4.43359C5.6875 5.62695 4.92578 6.51562 3.85938 6.71875Z" />
</svg>
