<svg viewBox="0 0 31 24" xmlns="http://www.w3.org/2000/svg">
<path d="M30.7188 17.625L25.6094 9.375C25.4688 9.14062 25.2344 9 25 9C24.7188 9 24.4844 9.14062 24.3438 9.375L19.2344 17.625C19.0469 17.8594 18.9531 18.1875 19 18.5156C19.2344 21.6094 21.8125 24 25 24C28.1406 24 30.7188 21.6094 30.9531 18.5156C31 18.1875 30.9062 17.8594 30.7188 17.625ZM24.9531 11.2031L29.2188 18H20.7344L24.9531 11.2031ZM25 22.5C23.0312 22.5 21.3906 21.2812 20.7344 19.5H29.2188C28.6094 21.2344 26.9219 22.5 25 22.5ZM25.7969 7.64062L26.0312 6.9375C26.125 6.75 26.0312 6.51562 25.7969 6.46875L18.7656 4.125C18.9062 3.75 19 3.42188 19 3C19 1.35938 17.6406 0 16 0C14.5938 0 13.4688 0.9375 13.0938 2.20312L6.625 0.046875C6.4375 0 6.20312 0.09375 6.15625 0.28125L5.92188 0.984375C5.82812 1.17188 5.92188 1.40625 6.15625 1.45312L13.0938 3.79688C13.375 4.82812 14.1719 5.625 15.25 5.90625V22.5H5.875C5.64062 22.5 5.5 22.6875 5.5 22.875V23.625C5.5 23.8594 5.64062 24 5.875 24H16.375C16.5625 24 16.75 23.8594 16.75 23.625V5.90625C17.125 5.8125 17.5 5.625 17.8281 5.39062L25.3281 7.875C25.5156 7.96875 25.75 7.82812 25.7969 7.64062ZM16 4.5C15.1562 4.5 14.5 3.84375 14.5 3C14.5 2.20312 15.1562 1.5 16 1.5C16.7969 1.5 17.5 2.20312 17.5 3C17.5 3.84375 16.7969 4.5 16 4.5ZM12.9531 12.5156C13 12.1875 12.9062 11.8594 12.7188 11.625L7.60938 3.375C7.46875 3.14062 7.23438 3 7 3C6.71875 3 6.48438 3.14062 6.34375 3.375L1.23438 11.625C1.04688 11.8594 0.953125 12.1875 1 12.5156C1.23438 15.6094 3.8125 18 7 18C10.1406 18 12.7188 15.6094 12.9531 12.5156ZM6.95312 5.20312L11.2188 12H2.73438L6.95312 5.20312ZM2.73438 13.5H11.2188C10.6094 15.2344 8.92188 16.5 7 16.5C5.03125 16.5 3.39062 15.2812 2.73438 13.5Z" />
</svg>
