<svg viewBox="0 0 18 13" xmlns="http://www.w3.org/2000/svg">
<path d="M9.125 8.75C7.98242 8.75 7.09375 9.66406 7.09375 10.7812C7.09375 11.9238 7.98242 12.8125 9.125 12.8125C10.2422 12.8125 11.1562 11.9238 11.1562 10.7812C11.1562 9.66406 10.2422 8.75 9.125 8.75ZM9.125 12C8.43945 12 7.90625 11.4668 7.90625 10.7812C7.90625 10.1211 8.43945 9.5625 9.125 9.5625C9.78516 9.5625 10.3438 10.1211 10.3438 10.7812C10.3438 11.4668 9.78516 12 9.125 12ZM17.1484 4.63672C12.6543 0.396484 5.57031 0.371094 1.07617 4.63672C0.949219 4.76367 0.949219 4.9668 1.07617 5.09375L1.22852 5.2207C1.33008 5.34766 1.5332 5.34766 1.66016 5.24609C5.84961 1.25977 12.4004 1.28516 16.5645 5.24609C16.6914 5.34766 16.8945 5.34766 16.9961 5.2207L17.1484 5.09375C17.2754 4.9668 17.2754 4.76367 17.1484 4.63672ZM14.3555 7.50586C11.3594 4.83984 6.86523 4.83984 3.86914 7.50586C3.74219 7.60742 3.74219 7.81055 3.86914 7.9375L3.99609 8.08984C4.12305 8.19141 4.30078 8.2168 4.42773 8.08984C7.09375 5.72852 11.1309 5.72852 13.7969 8.08984C13.9238 8.2168 14.1016 8.19141 14.2285 8.08984L14.3555 7.9375C14.4824 7.81055 14.4824 7.60742 14.3555 7.50586Z"/>
</svg>
