<svg viewBox="0 0 15 14" xmlns="http://www.w3.org/2000/svg">
<path d="M13.8125 0.625H0.8125C0.355469 0.625 0 1.00586 0 1.4375V5.5C0 5.95703 0.355469 6.3125 0.8125 6.3125H13.8125C14.2441 6.3125 14.625 5.95703 14.625 5.5V1.4375C14.625 1.00586 14.2441 0.625 13.8125 0.625ZM13.8125 5.5H0.8125V1.4375H13.8125V5.5ZM1.82812 4.6875H12.7969C12.8984 4.6875 13 4.61133 13 4.48438V4.07812C13 3.97656 12.8984 3.875 12.7969 3.875H1.82812C1.70117 3.875 1.625 3.97656 1.625 4.07812V4.48438C1.625 4.61133 1.70117 4.6875 1.82812 4.6875ZM5.6875 11.3906C5.6875 12.1777 5.02734 12.8125 4.26562 12.8125H3.85938C3.07227 12.8125 2.41211 12.1777 2.41211 11.3906C2.41211 11.2891 2.4375 11.2129 2.46289 11.1113C2.58984 10.4512 3.19922 9.96875 3.88477 9.96875H4.26562C4.36719 9.96875 4.46875 9.89258 4.46875 9.76562V9.35938C4.46875 9.25781 4.36719 9.15625 4.26562 9.15625H3.85938C2.61523 9.18164 1.625 10.1719 1.625 11.416C1.625 11.4922 1.625 11.543 1.625 11.6191C1.72656 12.7871 2.79297 13.625 3.93555 13.625H4.26562C5.48438 13.625 6.5 12.6348 6.5 11.3906V7.125H5.6875V11.3906ZM10.6641 8.34375H10.3594C10.2324 8.34375 10.1562 8.44531 10.1562 8.54688V8.95312C10.1562 9.08008 10.2324 9.15625 10.3594 9.15625H10.7656C11.5273 9.18164 12.1875 9.81641 12.1875 10.6035C12.1875 10.7051 12.1621 10.7812 12.1367 10.8828C12.0098 11.543 11.4004 12 10.7148 12H10.3594C9.57227 12 8.9375 11.3652 8.9375 10.5781V7.125H8.125V10.5781C8.125 11.8223 9.11523 12.8125 10.3594 12.8125H10.7656C11.9844 12.8125 12.9746 11.8223 12.9746 10.5781C12.9746 10.502 12.9746 10.4512 12.9746 10.375C12.873 9.20703 11.832 8.34375 10.6641 8.34375Z"/>
</svg>
