<svg width="99" height="75" viewBox="0 0 99 75" fill="none" xmlns="http://www.w3.org/2000/svg">
<path d="M89.7188 0.75H9.28125C4.06055 0.75 0 5.00391 0 10.0312V65.7188C0 70.9395 4.06055 75 9.28125 75H89.7188C94.7461 75 99 70.9395 99 65.7188V10.0312C99 5.00391 94.7461 0.75 89.7188 0.75ZM9.28125 6.9375H89.7188C91.2656 6.9375 92.8125 8.48438 92.8125 10.0312V18.1523C88.5586 21.6328 82.3711 26.6602 63.6152 41.5488C60.3281 44.2559 53.9473 50.4434 49.5 50.25C44.8594 50.4434 38.4785 44.2559 35.1914 41.5488C16.4355 26.6602 10.248 21.6328 6.1875 18.1523V10.0312C6.1875 8.48438 7.54102 6.9375 9.28125 6.9375ZM89.7188 68.8125H9.28125C7.54102 68.8125 6.1875 67.459 6.1875 65.7188V26.0801C10.4414 29.7539 17.4023 35.3613 31.3242 46.3828C35.3848 49.6699 42.3457 56.6309 49.5 56.4375C56.4609 56.6309 63.4219 49.6699 67.4824 46.3828C81.4043 35.3613 88.3652 29.7539 92.8125 26.0801V65.7188C92.8125 67.459 91.2656 68.8125 89.7188 68.8125Z" fill="#5EC2A8"/>
</svg>
