<svg viewBox="0 0 23 19" xmlns="http://www.w3.org/2000/svg">
<path d="M15.5742 0.917969C14.3789 0.460938 13.1836 0.25 11.9883 0.25C8.78906 0.25 5.76562 1.72656 3.76172 4.22266C3.55078 4.50391 3.69141 4.96094 4.04297 5.10156L12.0938 8.01953L8.92969 16.5625H0.5625C0.246094 16.5625 0 16.8438 0 17.125V17.6875C0 18.0039 0.246094 18.25 0.5625 18.25H19.6875C19.9688 18.25 20.25 18.0039 20.25 17.6875V17.125C20.25 16.8438 19.9688 16.5625 19.6875 16.5625H10.7578L13.6758 8.58203L21.7266 11.5352C21.7969 11.5352 21.8672 11.5703 21.9023 11.5703C22.2188 11.5703 22.4648 11.3242 22.4648 11.0078C22.5703 6.64844 19.9336 2.5 15.5742 0.917969ZM15.8906 7.59766L10.793 5.73438C11.2852 4.85547 11.8477 4.08203 12.4805 3.48438C13.3594 2.64062 14.2383 2.28906 14.8359 2.53516C15.4688 2.74609 15.8906 3.58984 16.0312 4.78516C16.1367 5.62891 16.0664 6.61328 15.8906 7.59766ZM6.22266 4.08203C7.73438 2.81641 9.66797 2.04297 11.6719 1.97266C11.5312 2.11328 10.3711 2.95703 9.21094 5.17188L6.22266 4.08203ZM17.4727 8.19531C17.7539 6.96484 17.8945 5.48828 17.6133 4.01172C19.2305 5.38281 20.3555 7.24609 20.6719 9.35547L17.4727 8.19531Z"/>
</svg>
