<svg viewBox="0 0 22 19" xmlns="http://www.w3.org/2000/svg">
<path d="M9.40234 1.9375L12.9531 8.125H17.0312C17.9453 8.125 19.2109 8.82812 19.5273 9.25C19.2109 9.70703 17.9453 10.375 17.0312 10.375H12.9531L9.40234 16.5625H8.10156L9.85938 10.375H5.78125L4.51562 12.0625H3.03906L3.88281 9.25L3.03906 6.4375H4.51562L5.78125 8.125H9.85938L8.10156 1.9375H9.40234ZM10.0703 0.25H6.625C6.23828 0.25 5.95703 0.636719 6.0625 0.988281L7.64453 6.4375H6.625L5.5 4.99609C5.39453 4.85547 5.25391 4.75 5.07812 4.75H1.5625C1.17578 4.75 0.894531 5.10156 1 5.45312L2.125 9.25L1 13.082C0.894531 13.4336 1.17578 13.75 1.5625 13.75H5.07812C5.25391 13.75 5.39453 13.6797 5.5 13.5391L6.625 12.0625H7.64453L6.0625 17.5469C5.95703 17.8984 6.23828 18.25 6.625 18.25H10.0703C10.2461 18.25 10.457 18.1445 10.5625 17.9688L13.9375 12.0625H17.0312C18.5781 12.0625 21.25 10.832 21.25 9.25C21.25 7.70312 18.5781 6.4375 17.0312 6.4375H13.9375L10.5625 0.566406C10.457 0.390625 10.2812 0.25 10.0703 0.25Z"/>
</svg>
