<svg viewBox="0 0 47 42"  xmlns="http://www.w3.org/2000/svg">
<g filter="url(#filter0_i_120_1099)">
<path d="M29.375 28.3308C29.375 29.157 28.6406 29.7996 27.9062 29.7996H19.0938C18.2676 29.7996 17.625 29.157 17.625 28.3308V23.9246H0V37.1433C0 39.53 2.01953 41.5496 4.40625 41.5496H42.5938C44.8887 41.5496 47 39.53 47 37.1433V23.9246H29.375V28.3308ZM42.5938 9.23706H35.25V4.83081C35.25 2.53589 33.1387 0.424561 30.8438 0.424561H16.1562C13.7695 0.424561 11.75 2.53589 11.75 4.83081V9.23706H4.40625C2.01953 9.23706 0 11.3484 0 13.6433V20.9871H47V13.6433C47 11.3484 44.8887 9.23706 42.5938 9.23706ZM29.375 9.23706H17.625V6.29956H29.375V9.23706Z"/>
</g>
<defs>
<filter id="filter0_i_120_1099" x="0" y="0.424561" width="47" height="45.125" filterUnits="userSpaceOnUse" color-interpolation-filters="sRGB">
<feFlood flood-opacity="0" result="BackgroundImageFix"/>
<feBlend mode="normal" in="SourceGraphic" in2="BackgroundImageFix" result="shape"/>
<feColorMatrix in="SourceAlpha" type="matrix" values="0 0 0 0 0 0 0 0 0 0 0 0 0 0 0 0 0 0 127 0" result="hardAlpha"/>
<feOffset dy="4"/>
<feGaussianBlur stdDeviation="2"/>
<feComposite in2="hardAlpha" operator="arithmetic" k2="-1" k3="1"/>
<feColorMatrix type="matrix" values="0 0 0 0 1 0 0 0 0 1 0 0 0 0 1 0 0 0 0.25 0"/>
<feBlend mode="normal" in2="shape" result="effect1_innerShadow_120_1099"/>
</filter>
</defs>
</svg>
