<svg  viewBox="0 0 23 14"  xmlns="http://www.w3.org/2000/svg">
<path d="M6.1875 7.25C7.73438 7.25 9 6.01953 9 4.4375C9 2.89062 7.73438 1.625 6.1875 1.625C4.60547 1.625 3.375 2.89062 3.375 4.4375C3.375 6.01953 4.60547 7.25 6.1875 7.25ZM18.5625 2.75H10.6875C10.3711 2.75 10.125 3.03125 10.125 3.3125V8.375H2.25V1.0625C2.25 0.78125 1.96875 0.5 1.6875 0.5H0.5625C0.246094 0.5 0 0.78125 0 1.0625V13.4375C0 13.7539 0.246094 14 0.5625 14H1.6875C1.96875 14 2.25 13.7539 2.25 13.4375V11.75H20.25V13.4375C20.25 13.7539 20.4961 14 20.8125 14H21.9375C22.2188 14 22.5 13.7539 22.5 13.4375V6.6875C22.5 4.54297 20.707 2.75 18.5625 2.75Z"/>
</svg>
