<svg  viewBox="0 0 41 37" xmlns="http://www.w3.org/2000/svg">
<g filter="url(#filter0_i_117_787)">
<path d="M27.8438 16.25H30.5859C31.0078 16.25 31.5 15.8281 31.5 15.4062V12.6641C31.5 12.2422 31.0078 11.75 30.5859 11.75H27.8438C27.4219 11.75 27 12.2422 27 12.6641V15.4062C27 15.8281 27.4219 16.25 27.8438 16.25ZM18.8438 9.5H21.5859C22.0078 9.5 22.5 9.07812 22.5 8.65625V5.91406C22.5 5.49219 22.0078 5 21.5859 5H18.8438C18.4219 5 18 5.49219 18 5.91406V8.65625C18 9.07812 18.4219 9.5 18.8438 9.5ZM27.8438 9.5H30.5859C31.0078 9.5 31.5 9.07812 31.5 8.65625V5.91406C31.5 5.49219 31.0078 5 30.5859 5H27.8438C27.4219 5 27 5.49219 27 5.91406V8.65625C27 9.07812 27.4219 9.5 27.8438 9.5ZM9.84375 9.5H12.5859C13.0078 9.5 13.5 9.07812 13.5 8.65625V5.91406C13.5 5.49219 13.0078 5 12.5859 5H9.84375C9.42188 5 9 5.49219 9 5.91406V8.65625C9 9.07812 9.42188 9.5 9.84375 9.5ZM18.8438 16.25H21.5859C22.0078 16.25 22.5 15.8281 22.5 15.4062V12.6641C22.5 12.2422 22.0078 11.75 21.5859 11.75H18.8438C18.4219 11.75 18 12.2422 18 12.6641V15.4062C18 15.8281 18.4219 16.25 18.8438 16.25ZM39.9375 2.75C40.2188 2.75 40.5 2.53906 40.5 2.1875V1.0625C40.5 0.78125 40.2188 0.5 39.9375 0.5H0.5625C0.210938 0.5 0 0.78125 0 1.0625V2.1875C0 2.53906 0.210938 2.75 0.5625 2.75H2.17969V34.25H0.5625C0.210938 34.25 0 34.5312 0 34.8125V35.9375C0 36.2891 0.210938 36.5 0.5625 36.5H39.9375C40.2188 36.5 40.5 36.2891 40.5 35.9375V34.8125C40.5 34.5312 40.2188 34.25 39.9375 34.25H38.25V2.75H39.9375ZM22.5 34.25H18V28.625C18 28.0625 18.4922 27.5 19.125 27.5H21.375C21.9375 27.5 22.5 28.0625 22.5 28.625V34.25ZM36 34.25H24.75V28.625C24.75 26.7969 23.2031 25.25 21.375 25.25H19.125C17.2266 25.25 15.75 26.7969 15.75 28.625V34.25H4.42969V2.75H36V34.25ZM9.84375 16.25H12.5859C13.0078 16.25 13.5 15.8281 13.5 15.4062V12.6641C13.5 12.2422 13.0078 11.75 12.5859 11.75H9.84375C9.42188 11.75 9 12.2422 9 12.6641V15.4062C9 15.8281 9.42188 16.25 9.84375 16.25ZM11.7422 27.3594L12.8672 27.5C13.1484 27.5703 13.4297 27.3594 13.5 27.0781C14.2031 24.0547 17.0156 21.875 20.25 21.875C23.4141 21.875 26.2266 24.0547 26.9297 27.0781C27 27.3594 27.2812 27.5703 27.5625 27.5L28.6875 27.3594C29.0391 27.3594 29.25 27.0078 29.1797 26.7266C28.3359 22.6484 24.5391 19.625 20.25 19.625C15.8906 19.625 12.0938 22.6484 11.25 26.7266C11.1797 27.0078 11.3906 27.3594 11.7422 27.3594Z" />
</g>
<defs>
<filter id="filter0_i_117_787" x="0" y="0.5" width="40.5" height="40" filterUnits="userSpaceOnUse" color-interpolation-filters="sRGB">
<feFlood flood-opacity="0" result="BackgroundImageFix"/>
<feBlend mode="normal" in="SourceGraphic" in2="BackgroundImageFix" result="shape"/>
<feColorMatrix in="SourceAlpha" type="matrix" values="0 0 0 0 0 0 0 0 0 0 0 0 0 0 0 0 0 0 127 0" result="hardAlpha"/>
<feOffset dy="4"/>
<feGaussianBlur stdDeviation="2"/>
<feComposite in2="hardAlpha" operator="arithmetic" k2="-1" k3="1"/>
<feColorMatrix type="matrix" values="0 0 0 0 1 0 0 0 0 1 0 0 0 0 1 0 0 0 0.25 0"/>
<feBlend mode="normal" in2="shape" result="effect1_innerShadow_117_787"/>
</filter>
</defs>
</svg>
