<svg viewBox="0 0 20 14" xmlns="http://www.w3.org/2000/svg">
<path d="M18.543 5.03516H16.7148L15.625 2.29297C15.2031 1.20312 14.1484 0.5 13.0234 0.5H6.94141C5.81641 0.5 4.76172 1.20312 4.33984 2.29297L3.25 5H1.42188C1.14062 5 0.929688 5.28125 1 5.52734L1.21094 6.37109C1.24609 6.58203 1.42188 6.6875 1.63281 6.6875H2.01953C1.73828 7.21484 1.5625 7.77734 1.5625 8.375V13.1562C1.5625 13.6484 1.91406 14 2.40625 14H2.96875C3.42578 14 3.8125 13.6484 3.8125 13.1562V12.3125H16.1875V13.1562C16.1875 13.6484 16.5391 14 17.0312 14H17.5938C18.0508 14 18.4375 13.6484 18.4375 13.1562V8.375C18.4375 7.77734 18.2266 7.21484 17.9453 6.72266H18.3672C18.543 6.72266 18.7188 6.58203 18.7539 6.37109L18.9648 5.52734C19.0352 5.28125 18.8242 5.03516 18.543 5.03516ZM5.92188 2.92578C6.09766 2.46875 6.48438 2.1875 6.94141 2.1875H13.0234C13.4805 2.1875 13.9023 2.46875 14.043 2.92578L14.9219 5H5.04297L5.92188 2.92578ZM16.75 10.0625C16.75 10.3789 16.4688 10.625 16.1875 10.625H3.8125C3.49609 10.625 3.25 10.3789 3.25 10.0625V8.375C3.25 7.46094 3.98828 6.6875 4.9375 6.6875H15.0625C15.9766 6.6875 16.75 7.46094 16.75 8.375V10.0625ZM5.5 7.53125C4.79688 7.53125 4.375 7.98828 4.375 8.65625C4.375 9.35938 4.79688 9.78125 5.5 9.78125C6.16797 9.78125 7.1875 9.88672 7.1875 9.21875C7.1875 8.55078 6.16797 7.53125 5.5 7.53125ZM14.5 7.53125C13.7969 7.53125 12.8125 8.55078 12.8125 9.21875C12.8125 9.88672 13.7969 9.78125 14.5 9.78125C15.168 9.78125 15.625 9.35938 15.625 8.65625C15.625 7.98828 15.168 7.53125 14.5 7.53125Z"/>
</svg>
