<svg width="113" height="88" viewBox="0 0 113 88" fill="none" xmlns="http://www.w3.org/2000/svg">
<path d="M111.334 79.8398C111.334 79.6465 107.08 75.0059 104.18 69.2051C109.4 63.9844 112.688 57.4102 112.688 50.0625C112.688 34.5938 97.7988 21.832 78.4629 19.7051C72.4688 8.49023 58.1602 0.5625 41.5312 0.5625C19.2949 0.5625 1.3125 14.4844 1.3125 31.5C1.3125 38.6543 4.40625 45.2285 9.82031 50.6426C6.72656 56.4434 2.47266 61.084 2.47266 61.2773C1.3125 62.4375 0.925781 64.3711 1.50586 66.1113C2.2793 67.6582 3.82617 68.8184 5.75977 68.8184C16.0078 68.8184 24.3223 64.7578 29.9297 61.2773C31.6699 61.6641 33.4102 61.8574 35.3438 62.2441C41.3379 73.2656 55.6465 81.1934 72.4688 81.1934C76.3359 81.1934 80.2031 80.6133 83.877 79.8398C89.4844 83.3203 97.7988 87.3809 108.24 87.3809C109.98 87.3809 111.527 86.2207 112.301 84.6738C112.881 82.9336 112.688 81 111.334 79.8398ZM31.2832 55.0898L28.7695 54.5098L26.4492 56.0566C22.582 58.5703 16.7812 61.4707 9.62695 62.2441C11.1738 60.1172 13.4941 57.0234 15.2344 53.3496L17.3613 49.2891L14.0742 46.1953C10.9805 43.1016 7.5 38.2676 7.5 31.5C7.5 17.9648 22.7754 6.75 41.5312 6.75C60.2871 6.75 75.5625 17.9648 75.5625 31.5C75.5625 45.2285 60.2871 56.25 41.5312 56.25C38.0508 56.25 34.5703 55.8633 31.2832 55.0898ZM87.3574 74.6191L85.0371 73.0723L82.5234 73.8457C79.2363 74.6191 75.7559 75.0059 72.4688 75.0059C59.707 75.0059 48.8789 69.9785 42.8848 62.4375C64.3477 61.8574 81.75 48.3223 81.75 31.5C81.75 29.7598 81.3633 28.0195 80.9766 26.2793C95.6719 28.9863 106.5 38.6543 106.5 50.0625C106.5 56.8301 102.826 61.6641 99.7324 64.7578L96.6387 67.8516L98.5723 71.9121C100.312 75.5859 102.633 78.6797 104.18 80.8066C97.0254 80.0332 91.2246 77.1328 87.3574 74.6191Z" fill="#5EC2A8"/>
</svg>
