<svg viewBox="0 0 18 19" fill="none" xmlns="http://www.w3.org/2000/svg">
<g filter="url(#filter0_i_890_6342)">
<path d="M16.2578 14.6992L11.125 7.94922V1.375H12.0391C12.1445 1.375 12.25 1.30469 12.25 1.16406V0.460938C12.25 0.355469 12.1445 0.25 12.0391 0.25H5.71094C5.57031 0.25 5.5 0.355469 5.5 0.460938V1.16406C5.5 1.30469 5.57031 1.375 5.71094 1.375H6.625V7.94922L1.45703 14.6992C0.332031 16.1758 1.38672 18.25 3.21484 18.25H14.5C16.3633 18.25 17.3828 16.1758 16.2578 14.6992ZM14.5 17.125H3.21484C2.30078 17.125 1.77344 16.1055 2.33594 15.4023L7.60938 8.47656C7.67969 8.37109 7.75 8.26562 7.75 8.125V1.375H10V8.125C10 8.26562 10.0352 8.37109 10.1055 8.47656L15.3789 15.4023C15.9414 16.1055 15.4141 17.125 14.5 17.125Z" />
</g>
<defs>
<filter id="filter0_i_890_6342" x="0.332031" y="0.25" width="17.0508" height="22" filterUnits="userSpaceOnUse" color-interpolation-filters="sRGB">
<feFlood flood-opacity="0" result="BackgroundImageFix"/>
<feBlend mode="normal" in="SourceGraphic" in2="BackgroundImageFix" result="shape"/>
<feColorMatrix in="SourceAlpha" type="matrix" values="0 0 0 0 0 0 0 0 0 0 0 0 0 0 0 0 0 0 127 0" result="hardAlpha"/>
<feOffset dy="4"/>
<feGaussianBlur stdDeviation="2"/>
<feComposite in2="hardAlpha" operator="arithmetic" k2="-1" k3="1"/>
<feColorMatrix type="matrix" values="0 0 0 0 1 0 0 0 0 1 0 0 0 0 1 0 0 0 0.25 0"/>
<feBlend mode="normal" in2="shape" result="effect1_innerShadow_890_6342"/>
</filter>
</defs>
</svg>
