<svg viewBox="0 0 100 101" fill="none" xmlns="http://www.w3.org/2000/svg">
<path d="M95.166 6.20898L75.8301 1.56836C72.9297 0.988281 70.0293 2.3418 68.8691 5.04883L59.7812 26.125C58.8145 28.6387 59.3945 31.5391 61.5215 33.0859L71.9629 41.5938C65.3887 55.1289 54.5605 65.957 41.0254 72.5312L32.5176 62.0898C30.9707 59.9629 28.0703 59.3828 25.5566 60.3496L4.48047 69.4375C1.9668 70.5977 0.419922 73.498 1 76.2051L5.64062 95.7344C6.2207 98.4414 8.54102 100.375 11.4414 100.375C60.168 100.375 100 60.9297 100 12.0098C100 9.10938 98.0664 6.78906 95.166 6.20898ZM11.6348 94.1875L7.1875 75.0449L27.877 66.1504L39.4785 80.2656C59.3945 70.791 70.2227 59.9629 79.6973 40.0469L65.582 28.4453L74.4766 7.75586L93.6191 12.2031C93.6191 57.4492 56.8809 94.1875 11.6348 94.1875Z" fill="#5EC2A8"/>
</svg>
