<svg viewBox="0 0 54 48" xmlns="http://www.w3.org/2000/svg">
<g filter="url(#filter0_i_120_1100)">
<path d="M48.4688 28.2097L52.7832 9.11597C53.0586 7.73901 52.0488 6.36206 50.5801 6.36206H14.5957L13.7695 2.323C13.4941 1.31323 12.5762 0.487061 11.5664 0.487061H2.20312C0.917969 0.487061 0 1.49683 0 2.69019V4.15894C0 5.44409 0.917969 6.36206 2.20312 6.36206H8.53711L15.0547 37.9402C13.4941 38.8582 12.4844 40.5105 12.4844 42.3464C12.4844 45.1921 14.7793 47.4871 17.625 47.4871C20.3789 47.4871 22.7656 45.1921 22.7656 42.3464C22.7656 40.9695 22.123 39.6843 21.2051 38.6746H40.3906C39.4727 39.6843 38.9219 40.9695 38.9219 42.3464C38.9219 45.1921 41.2168 47.4871 44.0625 47.4871C46.8164 47.4871 49.2031 45.1921 49.2031 42.3464C49.2031 40.3269 48.0098 38.5828 46.2656 37.7566L46.7246 35.5535C47.0918 34.1765 45.9902 32.7996 44.6133 32.7996H20.0117L19.3691 29.8621H46.2656C47.2754 29.8621 48.1934 29.2195 48.4688 28.2097Z"/>
</g>
<defs>
<filter id="filter0_i_120_1100" x="0" y="0.487061" width="53.0586" height="51" filterUnits="userSpaceOnUse" color-interpolation-filters="sRGB">
<feFlood flood-opacity="0" result="BackgroundImageFix"/>
<feBlend mode="normal" in="SourceGraphic" in2="BackgroundImageFix" result="shape"/>
<feColorMatrix in="SourceAlpha" type="matrix" values="0 0 0 0 0 0 0 0 0 0 0 0 0 0 0 0 0 0 127 0" result="hardAlpha"/>
<feOffset dy="4"/>
<feGaussianBlur stdDeviation="2"/>
<feComposite in2="hardAlpha" operator="arithmetic" k2="-1" k3="1"/>
<feColorMatrix type="matrix" values="0 0 0 0 1 0 0 0 0 1 0 0 0 0 1 0 0 0 0.25 0"/>
<feBlend mode="normal" in2="shape" result="effect1_innerShadow_120_1100"/>
</filter>
</defs>
</svg>
