<svg viewBox="0 0 61 41" xmlns="http://www.w3.org/2000/svg">
<g filter="url(#filter0_i_120_1081)">
<path d="M57.375 17.375H60.75V5.5625C60.75 2.82031 58.4297 0.5 55.6875 0.5L5.0625 0.5C2.21484 0.5 0 2.82031 0 5.5625L0 17.375H3.375C5.16797 17.375 6.75 18.957 6.75 20.75C6.75 22.6484 5.16797 24.125 3.375 24.125H0L0 35.9375C0 38.7852 2.21484 41 5.0625 41H55.6875C58.4297 41 60.75 38.7852 60.75 35.9375V24.125H57.375C55.4766 24.125 54 22.6484 54 20.75C54 18.957 55.4766 17.375 57.375 17.375ZM57.375 27.5V35.9375C57.375 36.8867 56.5312 37.625 55.6875 37.625H5.0625C4.11328 37.625 3.375 36.8867 3.375 35.9375L3.375 27.5C7.06641 27.5 10.125 24.5469 10.125 20.75C10.125 17.0586 7.06641 14 3.375 14L3.375 5.5625C3.375 4.71875 4.11328 3.875 5.0625 3.875L55.6875 3.875C56.5312 3.875 57.375 4.71875 57.375 5.5625V14C53.5781 14 50.625 17.0586 50.625 20.75C50.625 24.5469 53.5781 27.5 57.375 27.5Z"/>
</g>
<defs>
<filter id="filter0_i_120_1081" x="0" y="0.5" width="60.75" height="44.5" filterUnits="userSpaceOnUse" color-interpolation-filters="sRGB">
<feFlood flood-opacity="0" result="BackgroundImageFix"/>
<feBlend mode="normal" in="SourceGraphic" in2="BackgroundImageFix" result="shape"/>
<feColorMatrix in="SourceAlpha" type="matrix" values="0 0 0 0 0 0 0 0 0 0 0 0 0 0 0 0 0 0 127 0" result="hardAlpha"/>
<feOffset dy="4"/>
<feGaussianBlur stdDeviation="2"/>
<feComposite in2="hardAlpha" operator="arithmetic" k2="-1" k3="1"/>
<feColorMatrix type="matrix" values="0 0 0 0 1 0 0 0 0 1 0 0 0 0 1 0 0 0 0.25 0"/>
<feBlend mode="normal" in2="shape" result="effect1_innerShadow_120_1081"/>
</filter>
</defs>
</svg>
