<svg viewBox="0 0 16 13" xmlns="http://www.w3.org/2000/svg">
<path d="M15.6133 6.44922L14.3828 5.21875C14.1367 4.97266 14 4.64453 14 4.28906V1.9375C14 1.22656 13.3984 0.625 12.6875 0.625H10.7188C10.582 0.625 10.5 0.734375 10.5 0.84375V1.28125C10.5 1.41797 10.582 1.5 10.7188 1.5H12.6875C12.9062 1.5 13.125 1.71875 13.125 1.9375V4.28906C13.125 4.89062 13.3438 5.4375 13.7539 5.84766L14.6836 6.75L13.7539 7.67969C13.3438 8.08984 13.125 8.63672 13.125 9.23828V11.5625C13.125 11.8086 12.9062 12 12.6875 12H10.7188C10.582 12 10.5 12.1094 10.5 12.2188V12.6562C10.5 12.793 10.582 12.875 10.7188 12.875H12.6875C13.3984 12.875 14 12.3008 14 11.5625V9.23828C14 8.88281 14.1367 8.55469 14.3828 8.30859L15.6133 7.07812C15.6953 6.99609 15.7227 6.88672 15.7227 6.77734C15.7227 6.64062 15.6953 6.53125 15.6133 6.44922ZM5.03125 0.625H3.0625C2.32422 0.625 1.75 1.22656 1.75 1.9375V4.28906C1.75 4.64453 1.58594 4.97266 1.33984 5.21875L0.109375 6.44922C0.0273438 6.53125 0 6.64062 0 6.75C0 6.88672 0.0273438 6.99609 0.109375 7.07812L1.33984 8.30859C1.58594 8.55469 1.75 8.88281 1.75 9.23828V11.5625C1.75 12.3008 2.32422 12.875 3.0625 12.875H5.03125C5.14062 12.875 5.25 12.793 5.25 12.6562V12.2188C5.25 12.1094 5.14062 12 5.03125 12H3.0625C2.81641 12 2.625 11.8086 2.625 11.5625V9.23828C2.625 8.63672 2.37891 8.08984 1.96875 7.67969L1.03906 6.75L1.96875 5.84766C2.37891 5.4375 2.625 4.89062 2.625 4.28906V1.9375C2.625 1.71875 2.81641 1.5 3.0625 1.5H5.03125C5.14062 1.5 5.25 1.41797 5.25 1.28125V0.84375C5.25 0.734375 5.14062 0.625 5.03125 0.625Z" />
</svg>
