<svg viewBox="0 0 28 25" xmlns="http://www.w3.org/2000/svg">
<path d="M19.5469 15.8125C19.5 15.8594 19.5 15.9531 19.5 16V22.75C19.5 23.1719 19.125 23.5 18.75 23.5H2.25C1.82812 23.5 1.5 23.1719 1.5 22.75V6.25C1.5 5.875 1.82812 5.5 2.25 5.5H15C15.0469 5.5 15.1406 5.5 15.1875 5.45312L16.125 4.51562C16.3125 4.32812 16.1719 4 15.9375 4H2.25C0.984375 4 0 5.03125 0 6.25V22.75C0 24.0156 0.984375 25 2.25 25H18.75C19.9688 25 21 24.0156 21 22.75V15.0625C21 14.8281 20.6719 14.6875 20.4844 14.875L19.5469 15.8125ZM26.3906 6.85938C27.1875 6.0625 27.1875 4.84375 26.3906 4.04688L23.9531 1.60938C23.1562 0.8125 21.9375 0.8125 21.1406 1.60938L6.51562 16.2344L6 20.9219C5.90625 21.5781 6.42188 22.0938 7.07812 22L11.7656 21.4844L26.3906 6.85938ZM22.0312 9.10938L11.0625 20.0781L7.54688 20.4531L7.92188 16.9375L18.8906 5.96875L22.0312 9.10938ZM25.3594 5.125C25.5469 5.3125 25.5469 5.59375 25.3594 5.78125L23.0625 8.03125L19.9688 4.9375L22.2188 2.64062C22.4062 2.45312 22.6875 2.5 22.875 2.64062L25.3594 5.125Z"/>
</svg>
