<svg viewBox="0 0 9 13" fill="none" xmlns="http://www.w3.org/2000/svg">
<path d="M8.28516 11.918C8.25781 11.7266 8.06641 11.6172 7.90234 11.6719C7.62891 11.7266 7.19141 11.8086 6.69922 11.8086C4.48438 11.8086 2.81641 10.5234 2.29688 8.5H6.53516C6.69922 8.5 6.83594 8.39062 6.86328 8.25391L6.89062 8.03516C6.94531 7.81641 6.78125 7.625 6.58984 7.625H2.10547C2.05078 7.07812 2.05078 6.44922 2.13281 5.875H7C7.16406 5.875 7.30078 5.76562 7.32812 5.62891L7.38281 5.41016C7.41016 5.19141 7.24609 5 7.05469 5H2.32422C2.87109 3.08594 4.51172 1.71875 6.67188 1.71875C7.08203 1.71875 7.46484 1.77344 7.71094 1.82812C7.875 1.85547 8.03906 1.74609 8.09375 1.58203L8.20312 1.17188C8.23047 0.980469 8.12109 0.789062 7.92969 0.761719C7.65625 0.707031 7.21875 0.625 6.69922 0.625C3.91016 0.625 1.72266 2.51172 1.06641 5H0.328125C0.136719 5 0 5.16406 0 5.32812V5.54688C0 5.73828 0.136719 5.875 0.328125 5.875H0.902344C0.847656 6.36719 0.875 7.24219 0.902344 7.625H0.328125C0.136719 7.625 0 7.78906 0 7.95312V8.17188C0 8.36328 0.136719 8.5 0.328125 8.5H1.03906C1.61328 11.1523 3.80078 12.875 6.69922 12.875C7.30078 12.875 7.82031 12.793 8.14844 12.7109C8.3125 12.6836 8.42188 12.4922 8.39453 12.3281L8.28516 11.918Z" fill="#5EC2A8"/>
</svg>
