<svg viewBox="0 0 8 17" xmlns="http://www.w3.org/2000/svg">
<path d="M6.5 12.0312V7C6.5 6.53125 6.25 6.09375 5.90625 5.8125C6.5625 5.28125 7 4.4375 7 3.5C7 1.875 5.625 0.5 4 0.5C2.34375 0.5 1 1.875 1 3.5C1 4.28125 1.28125 5 1.75 5.5C0.90625 5.5 0.25 6.1875 0.25 7V8.5C0.25 9.25 0.78125 9.875 1.5 10V12.0312C0.78125 12.1562 0.25 12.7812 0.25 13.5V15C0.25 15.8438 0.90625 16.5 1.75 16.5H6.25C7.0625 16.5 7.75 15.8438 7.75 15V13.5C7.75 12.7812 7.1875 12.1562 6.5 12.0312ZM4 1.5C5.09375 1.5 6 2.40625 6 3.5C6 4.625 5.09375 5.5 4 5.5C2.875 5.5 2 4.625 2 3.5C2 2.40625 2.875 1.5 4 1.5ZM6.75 15C6.75 15.2812 6.5 15.5 6.25 15.5H1.75C1.46875 15.5 1.25 15.2812 1.25 15V13.5C1.25 13.25 1.46875 13 1.75 13H2.5V9H1.75C1.46875 9 1.25 8.78125 1.25 8.5V7C1.25 6.75 1.46875 6.5 1.75 6.5H5C5.25 6.5 5.5 6.75 5.5 7V13H6.25C6.5 13 6.75 13.25 6.75 13.5V15Z"/>
</svg>
