<svg viewBox="0 0 1553 204" fill="none" xmlns="http://www.w3.org/2000/svg">
<path d="M1 175C74.8333 133.334 241.39 54.522 429 106C593 151 567.133 56.0773 521 43.0003C457.5 25.0003 393.571 109.038 502.5 166.612C770 308 832 -5.99959 1088 43.0003C1255.04 74.9735 1358.5 344.389 1506 64.0004" stroke="url(#paint0_linear_0_1)" stroke-miterlimit="3.86874" stroke-linecap="round" stroke-linejoin="round" stroke-dasharray="2 5"/>
<path d="M1551.92 1.0001L1482.87 40.8123L1501.11 42.6789L1549.7 3.16257L1511.05 43.2794L1534.61 45.1798L1551.92 1.0001Z" stroke="#5EC2A8" stroke-miterlimit="3.86874" stroke-linecap="round" stroke-linejoin="round" stroke-dasharray="1 3"/>
<path d="M1510.68 43.8786L1507.83 60.1191L1499.78 43.2083" stroke="#5EC2A8" stroke-miterlimit="3.86874" stroke-linecap="round" stroke-linejoin="round" stroke-dasharray="1 3"/>
<path d="M1507.83 60.1192L1520.15 44.6528" stroke="#5EC2A8" stroke-miterlimit="3.86874" stroke-linecap="round" stroke-linejoin="round" stroke-dasharray="1 3"/>
<defs>
<linearGradient id="paint0_linear_0_1" x1="1620" y1="203" x2="-100" y2="186" gradientUnits="userSpaceOnUse">
<stop stop-color="#6F6F6F"/>
<stop offset="1" stop-color="#6F6F6F" stop-opacity="0"/>
</linearGradient>
</defs>
</svg>
