<svg viewBox="0 0 8 15" xmlns="http://www.w3.org/2000/svg">
<path d="M3.9375 0.75C1.75 0.75 0 2.52734 0 4.6875C0 6.65625 1.39453 8.26953 3.28125 8.57031V13.9844L3.71875 14.6406C3.82812 14.8047 4.01953 14.8047 4.12891 14.6406L4.59375 13.9844V8.57031C6.45312 8.26953 7.875 6.65625 7.875 4.6875C7.875 2.52734 6.09766 0.75 3.9375 0.75ZM3.9375 7.3125C2.48828 7.3125 1.3125 6.13672 1.3125 4.6875C1.3125 3.26562 2.48828 2.0625 3.9375 2.0625C5.35938 2.0625 6.5625 3.26562 6.5625 4.6875C6.5625 6.13672 5.35938 7.3125 3.9375 7.3125ZM3.9375 2.9375C2.95312 2.9375 2.1875 3.73047 2.1875 4.6875C2.1875 4.93359 2.37891 5.125 2.625 5.125C2.84375 5.125 3.0625 4.93359 3.0625 4.6875C3.0625 4.22266 3.44531 3.8125 3.9375 3.8125C4.15625 3.8125 4.375 3.62109 4.375 3.375C4.375 3.15625 4.15625 2.9375 3.9375 2.9375Z"/>
</svg>
