<svg viewBox="0 0 42 42" xmlns="http://www.w3.org/2000/svg">
<g filter="url(#filter0_i_122_1855)">
<path d="M21 28.1406C19.6875 28.1406 18.7031 29.207 18.7031 30.4375C18.7031 31.75 19.6875 32.7344 21 32.7344C22.2305 32.7344 23.2969 31.75 23.2969 30.4375C23.2969 29.207 22.2305 28.1406 21 28.1406ZM21.5742 26.1719C22.1484 26.1719 22.5586 25.7617 22.5586 25.1875C22.5586 21.6602 28.957 21.9062 28.957 16.4102C28.957 12.2266 25.1836 9.76562 20.918 9.76562C17.2266 9.76562 15.1758 11.2422 13.4531 13.457C13.125 13.9492 13.207 14.5234 13.6992 14.8516L14.7656 15.6719C15.1758 15.918 15.75 15.8359 16.0781 15.4258C17.3086 13.8672 18.5391 13.0469 20.918 13.0469C24.1992 13.0469 25.6758 14.7695 25.6758 16.4102C25.6758 19.9375 19.2773 19.4453 19.2773 25.1875C19.2773 25.7617 19.7695 26.1719 20.2617 26.1719H21.5742ZM21 3.53125C30.6797 3.53125 38.7188 11.4883 38.7188 21.25C38.7188 31.0938 30.7617 38.9688 21 38.9688C11.1562 38.9688 3.28125 31.0938 3.28125 21.25C3.28125 11.4883 11.1562 3.53125 21 3.53125ZM21 0.90625C9.76172 0.90625 0.65625 10.0938 0.65625 21.25C0.65625 32.4883 9.76172 41.5938 21 41.5938C32.1562 41.5938 41.3438 32.4883 41.3438 21.25C41.3438 10.0938 32.1562 0.90625 21 0.90625Z" />
</g>
<defs>
<filter id="filter0_i_122_1855" x="0.65625" y="0.90625" width="40.6875" height="44.6875" filterUnits="userSpaceOnUse" color-interpolation-filters="sRGB">
<feFlood flood-opacity="0" result="BackgroundImageFix"/>
<feBlend mode="normal" in="SourceGraphic" in2="BackgroundImageFix" result="shape"/>
<feColorMatrix in="SourceAlpha" type="matrix" values="0 0 0 0 0 0 0 0 0 0 0 0 0 0 0 0 0 0 127 0" result="hardAlpha"/>
<feOffset dy="4"/>
<feGaussianBlur stdDeviation="2"/>
<feComposite in2="hardAlpha" operator="arithmetic" k2="-1" k3="1"/>
<feColorMatrix type="matrix" values="0 0 0 0 1 0 0 0 0 1 0 0 0 0 1 0 0 0 0.25 0"/>
<feBlend mode="normal" in2="shape" result="effect1_innerShadow_122_1855"/>
</filter>
</defs>
</svg>
