<svg viewBox="0 0 20 22" xmlns="http://www.w3.org/2000/svg">
<path d="M10 17.8516C10.4512 17.8516 10.8203 17.4824 10.8203 17.0312V14.4062C10.8203 13.9551 10.4512 13.5859 10 13.5859C9.54883 13.5859 9.17969 13.9551 9.17969 14.4062V17.0312C9.17969 17.4824 9.54883 17.8516 10 17.8516ZM19.1875 11.7812C19.1875 10.7148 18.2852 9.8125 17.2188 9.8125H16.5625V7.26953C16.5625 3.66016 13.6094 0.666016 10 0.625C6.39062 0.625 3.4375 3.57812 3.4375 7.1875V9.8125H2.78125C1.67383 9.8125 0.8125 10.7148 0.8125 11.7812V19.6562C0.8125 20.7637 1.67383 21.625 2.78125 21.625H17.2188C18.2852 21.625 19.1875 20.7637 19.1875 19.6562V11.7812ZM4.75 9.8125V7.1875C4.75 4.31641 7.08789 1.9375 10 1.9375C12.8711 1.9375 15.25 4.31641 15.25 7.1875V9.8125H4.75ZM17.875 19.6562C17.875 20.0254 17.5469 20.3125 17.2188 20.3125H2.78125C2.41211 20.3125 2.125 20.0254 2.125 19.6562V11.7812C2.125 11.4531 2.41211 11.125 2.78125 11.125H17.2188C17.5469 11.125 17.875 11.4531 17.875 11.7812V19.6562Z"/>
</svg>
