<svg viewBox="0 0 20 22" xmlns="http://www.w3.org/2000/svg">
<path d="M18.6133 4.07031L10.7383 0.789062C10.4922 0.707031 10.2461 0.666016 10 0.666016C9.71289 0.666016 9.4668 0.707031 9.2207 0.789062L1.3457 4.07031C0.607422 4.39844 0.15625 5.0957 0.15625 5.875C0.15625 14.0371 4.83203 19.6562 9.2207 21.502C9.71289 21.707 10.2461 21.707 10.7383 21.502C14.2656 20.0254 19.8438 14.9805 19.8438 5.875C19.8438 5.0957 19.3516 4.39844 18.6133 4.07031ZM10.2461 20.2715C10.082 20.3535 9.87695 20.3535 9.71289 20.2715C5.73438 18.6719 1.46875 13.0938 1.46875 5.875C1.46875 5.62891 1.5918 5.38281 1.83789 5.30078L9.71289 2.01953C9.87695 1.9375 10.082 1.9375 10.2461 2.01953L18.1211 5.30078C18.3672 5.38281 18.5312 5.62891 18.4902 5.875C18.5312 13.0938 14.2656 18.6719 10.2461 20.2715ZM15.8242 6.94141C15.6191 6.77734 15.332 6.77734 15.127 6.94141L8.44141 13.5859L5.61133 10.7559C5.40625 10.5508 5.07812 10.5508 4.91406 10.7559L4.54492 11.084C4.33984 11.2891 4.33984 11.5762 4.54492 11.7812L8.07227 15.3496C8.27734 15.5137 8.56445 15.5137 8.76953 15.3496L16.1523 8.00781C16.3574 7.80273 16.3574 7.51562 16.1523 7.31055L15.8242 6.94141Z"/>
</svg>
