<svg viewBox="0 0 16 17" xmlns="http://www.w3.org/2000/svg">
<path d="M8 0.75C3.71875 0.75 0.25 4.25 0.25 8.5C0.25 12.7812 3.71875 16.25 8 16.25C12.25 16.25 15.75 12.7812 15.75 8.5C15.75 4.25 12.25 0.75 8 0.75ZM8 15.25C4.28125 15.25 1.25 12.25 1.25 8.5C1.25 4.8125 4.25 1.75 8 1.75C11.6875 1.75 14.75 4.78125 14.75 8.5C14.75 12.2188 11.7188 15.25 8 15.25ZM12.4062 6.6875C12.5625 6.53125 12.5625 6.28125 12.4062 6.15625L12.1562 5.875C12 5.71875 11.75 5.71875 11.625 5.875L6.5 10.9375L4.34375 8.78125C4.21875 8.625 3.96875 8.625 3.8125 8.78125L3.5625 9.03125C3.40625 9.1875 3.40625 9.40625 3.5625 9.5625L6.25 12.2812C6.375 12.4062 6.625 12.4062 6.78125 12.2812L12.4062 6.6875Z"/>
</svg>
