<svg viewBox="0 0 14 17" xmlns="http://www.w3.org/2000/svg">
<path d="M10 11.5H9.84375C9.46875 11.5 9.09375 11.5938 8.71875 11.7188C8.1875 11.9062 7.59375 12 7 12C6.375 12 5.78125 11.9062 5.25 11.7188C4.875 11.5938 4.5 11.5312 4.125 11.5312H4C1.78125 11.5312 0 13.3125 0 15.5C0 16.0625 0.4375 16.5 1 16.5H13C13.5312 16.5 14 16.0625 14 15.5C14 13.3125 12.1875 11.5 10 11.5ZM1 15.5C1 13.875 2.34375 12.5312 4 12.5H4.125C4.34375 12.5 4.59375 12.5625 4.90625 12.6875C5.5625 12.9062 6.25 13 6.96875 13C7.71875 13 8.40625 12.9062 9.0625 12.6875C9.375 12.5625 9.625 12.5 9.84375 12.5H10C11.625 12.5312 12.9688 13.875 13 15.5H1ZM1.5 7.5C1.75 7.5 2 7.28125 2 7V6.5C2 3.75 4.21875 1.5 7 1.5C9.75 1.5 12 3.75 12 6.5V7C11.9688 8.40625 10.875 9.5 9.5 9.5H8.5C8.5 8.96875 8.03125 8.5 7.5 8.5H6.5C5.9375 8.5 5.5 8.96875 5.5 9.5C5.5 10.0625 5.9375 10.5 6.5 10.5H9.5C11.4062 10.5 12.9688 8.9375 13 7V6.5C13 3.21875 10.2812 0.5 7 0.5C3.6875 0.5 1 3.21875 1 6.5V7C1 7.28125 1.21875 7.5 1.5 7.5ZM7 3.5C8.65625 3.5 10 4.84375 10 6.5C10 7.28125 9.6875 7.96875 9.21875 8.5H9.5C10.0312 8.5 10.5 8.21875 10.75 7.8125C10.9062 7.40625 11 6.96875 11 6.5C11 4.3125 9.1875 2.5 7 2.5C4.78125 2.5 3 4.3125 3 6.5C3 7.78125 3.59375 8.875 4.5 9.625C4.5 9.59375 4.5 9.5625 4.5 9.5C4.5 9.15625 4.59375 8.8125 4.75 8.5C4.28125 8 3.96875 7.28125 3.96875 6.5C3.96875 4.84375 5.3125 3.53125 6.96875 3.53125C6.96875 3.53125 6.96875 3.5 7 3.5Z"/>
</svg>
