<svg viewBox="0 0 62 63" xmlns="http://www.w3.org/2000/svg">
<g filter="url(#filter0_i_120_1101)">
<path d="M31 0.612061C13.875 0.612061 0 14.4871 0 31.6121C0 48.7371 13.875 62.6121 31 62.6121C48.125 62.6121 62 48.7371 62 31.6121C62 14.4871 48.125 0.612061 31 0.612061ZM56 31.6121C56 34.4871 55.5 37.2371 54.625 39.7371H52C51.5 39.7371 51 39.4871 50.625 39.1121L46.625 34.9871C46.125 34.4871 46.125 33.4871 46.625 32.9871L48.25 31.3621V30.3621C48.25 29.9871 48 29.6121 47.75 29.3621L46.625 28.1121C46.375 27.8621 46 27.7371 45.625 27.7371H43.625C42.875 27.7371 42.25 27.1121 42.25 26.3621C42.25 25.9871 42.375 25.6121 42.625 25.3621L43.75 24.1121C44 23.8621 44.375 23.7371 44.75 23.7371H48.75C49.625 23.7371 50.25 23.1121 50.25 22.3621V21.1121C50.25 20.3621 49.625 19.7371 48.75 19.7371H44.25C43.125 19.7371 42.25 20.6121 42.25 21.7371V22.2371C42.25 23.1121 41.625 23.8621 40.875 24.2371L36.875 25.4871C36.5 25.6121 36.25 25.9871 36.25 26.4871V26.7371C36.25 27.2371 35.75 27.7371 35.25 27.7371H33.25C32.625 27.7371 32.25 27.2371 32.25 26.7371C32.25 26.1121 31.75 25.7371 31.25 25.7371H30.875C30.5 25.7371 30.125 25.9871 29.875 26.2371L28.75 28.6121C28.375 29.2371 27.75 29.7371 27 29.7371H24.25C23.125 29.7371 22.25 28.8621 22.25 27.7371V24.4871C22.25 23.9871 22.375 23.4871 22.75 23.1121L25.25 20.6121C25.875 19.9871 26.25 19.2371 26.25 18.4871C26.25 17.9871 26.5 17.6121 26.875 17.4871L31.875 15.8621C32.125 15.7371 32.25 15.6121 32.375 15.4871L35.75 12.1121C36 11.8621 36.25 11.4871 36.25 11.1121C36.25 10.3621 35.5 9.73706 34.75 9.73706H32.25L30.25 11.7371V12.7371C30.25 13.2371 29.75 13.7371 29.25 13.7371H27.25C26.625 13.7371 26.25 13.2371 26.25 12.7371V10.2371C26.25 9.86206 26.375 9.61206 26.625 9.36206L30.25 6.73706C30.5 6.73706 30.625 6.61206 30.875 6.61206C44.75 6.61206 56 17.8621 56 31.6121ZM16.25 18.3621C16.25 17.9871 16.375 17.6121 16.625 17.3621L19.75 14.1121C20 13.8621 20.375 13.7371 20.75 13.7371C21.625 13.7371 22.25 14.3621 22.25 15.1121V17.1121C22.25 17.4871 22 17.8621 21.75 18.1121L20.625 19.3621C20.375 19.6121 20 19.7371 19.625 19.7371H17.625C16.875 19.7371 16.25 19.1121 16.25 18.3621ZM32.25 56.6121V55.7371C32.25 54.6121 31.25 53.7371 30.25 53.7371H27.625C26.375 53.7371 24.375 53.1121 23.25 52.2371L20.5 50.1121C19 49.1121 18.25 47.3621 18.25 45.6121V42.6121C18.25 40.6121 19.25 38.7371 21 37.7371L26.375 34.4871C27.25 33.9871 28.25 33.7371 29.25 33.7371H33.125C34.5 33.7371 35.875 34.2371 36.875 35.1121L42.25 39.7371H44.5C45.625 39.7371 46.625 40.1121 47.375 40.8621L49.5 43.1121C50 43.4871 50.5 43.7371 51.125 43.7371H52.875C48.75 51.1121 41.125 56.1121 32.25 56.6121Z"/>
</g>
<defs>
<filter id="filter0_i_120_1101" x="0" y="0.612061" width="62" height="66" filterUnits="userSpaceOnUse" color-interpolation-filters="sRGB">
<feFlood flood-opacity="0" result="BackgroundImageFix"/>
<feBlend mode="normal" in="SourceGraphic" in2="BackgroundImageFix" result="shape"/>
<feColorMatrix in="SourceAlpha" type="matrix" values="0 0 0 0 0 0 0 0 0 0 0 0 0 0 0 0 0 0 127 0" result="hardAlpha"/>
<feOffset dy="4"/>
<feGaussianBlur stdDeviation="2"/>
<feComposite in2="hardAlpha" operator="arithmetic" k2="-1" k3="1"/>
<feColorMatrix type="matrix" values="0 0 0 0 1 0 0 0 0 1 0 0 0 0 1 0 0 0 0.25 0"/>
<feBlend mode="normal" in2="shape" result="effect1_innerShadow_120_1101"/>
</filter>
</defs>
</svg>
