<svg viewBox="0 0 24 16" xmlns="http://www.w3.org/2000/svg">
<path d="M22.7461 2.71094C22.9102 3.44922 23.0742 4.59766 23.1562 6.07422L23.1973 8.125L23.1562 10.1758C23.0742 11.7344 22.9102 12.8418 22.7461 13.5801C22.582 14.0723 22.3359 14.4824 22.0078 14.8105C21.6387 15.1797 21.2285 15.4258 20.7363 15.5488C19.998 15.7539 18.3574 15.877 15.7324 15.959L12 16L8.26758 15.959C5.64258 15.877 3.96094 15.7539 3.26367 15.5488C2.77148 15.4258 2.32031 15.1797 1.99219 14.8105C1.62305 14.4824 1.37695 14.0723 1.25391 13.5801C1.04883 12.8418 0.925781 11.7344 0.84375 10.1758L0.802734 8.125C0.802734 7.55078 0.802734 6.85352 0.84375 6.07422C0.925781 4.59766 1.04883 3.44922 1.25391 2.71094C1.37695 2.21875 1.62305 1.80859 1.99219 1.43945C2.32031 1.11133 2.77148 0.865234 3.26367 0.701172C3.96094 0.537109 5.64258 0.373047 8.26758 0.291016L12 0.25L15.7324 0.291016C18.3574 0.373047 19.998 0.537109 20.7363 0.701172C21.2285 0.865234 21.6387 1.11133 22.0078 1.43945C22.3359 1.80859 22.582 2.21875 22.7461 2.71094ZM9.70312 11.4883L15.5684 8.125L9.70312 4.80273V11.4883Z" />
</svg>
