<svg viewBox="0 0 24 18" xmlns="http://www.w3.org/2000/svg">
<path d="M12 0C5.34375 0 0 3.04688 0 6.75V12C0 15.3281 5.34375 18 12 18C18.6094 18 24 15.3281 24 12V6.75C24 3.04688 18.6094 0 12 0ZM3 14.2031C2.01562 13.5 1.5 12.75 1.5 12V10.0312C1.92188 10.5 2.4375 10.875 3 11.2031V14.2031ZM6.75 15.8438C5.95312 15.6562 5.20312 15.375 4.5 15.0469V12.0469C5.20312 12.375 5.95312 12.6094 6.75 12.8438V15.8438ZM11.25 16.5C10.2188 16.4531 9.1875 16.3594 8.25 16.1719V13.1719C9.1875 13.3594 10.2188 13.4531 11.25 13.5V16.5ZM15.75 16.1719C14.7656 16.3594 13.7344 16.4531 12.75 16.5V13.5C13.7344 13.4531 14.7656 13.3594 15.75 13.1719V16.1719ZM19.5 15.0469C18.75 15.375 18 15.6562 17.25 15.8438V12.8438C18 12.6094 18.75 12.375 19.5 12.0469V15.0469ZM22.5 12C22.5 12.75 21.9375 13.5 21 14.2031V11.2031C21.5156 10.875 22.0312 10.5 22.5 10.0312V12ZM12 12C5.8125 12 1.5 9.23438 1.5 6.75C1.5 4.26562 5.8125 1.5 12 1.5C18.1875 1.5 22.5 4.26562 22.5 6.75C22.5 9.23438 18.1875 12 12 12Z" />
</svg>
