<svg viewBox="0 0 42 43" xmlns="http://www.w3.org/2000/svg">
<g filter="url(#filter0_i_120_1127)">
<path d="M21 12.0625C15.9141 12.0625 11.8125 16.1641 11.8125 21.25C11.8125 26.3359 15.9141 30.4375 21 30.4375C26.0039 30.4375 30.1875 26.3359 30.1875 21.25C30.1875 16.1641 26.0039 12.0625 21 12.0625ZM21 27.8125C17.3086 27.8125 14.4375 24.8594 14.4375 21.25C14.4375 17.6406 17.3086 14.6875 21 14.6875C24.6094 14.6875 27.5625 17.6406 27.5625 21.25C27.5625 24.8594 24.6094 27.8125 21 27.8125ZM42 21.25C42 20.8398 41.7539 20.4297 41.3438 20.1836L34.6172 15.5898L36.1758 7.63281C36.2578 7.14062 36.0938 6.73047 35.8477 6.40234C35.5195 6.07422 35.0273 5.99219 34.6172 6.07422L26.5781 7.63281L22.0664 0.824219C21.5742 0.0859375 20.3438 0.0859375 19.8516 0.824219L15.3398 7.63281L7.30078 6.07422C6.89062 5.99219 6.39844 6.07422 6.15234 6.40234C5.82422 6.73047 5.66016 7.14062 5.74219 7.55078L7.38281 15.5898L0.574219 20.1836C0.164062 20.4297 0 20.8398 0 21.25C0 21.7422 0.164062 22.1523 0.574219 22.3984L7.38281 26.9102L5.74219 34.9492C5.66016 35.3594 5.82422 35.8516 6.15234 36.0977C6.39844 36.4258 6.89062 36.5898 7.30078 36.5078L15.3398 34.8672L19.8516 41.6758C20.0977 42.0859 20.5078 42.25 21 42.25C21.4102 42.25 21.8203 42.0859 22.0664 41.6758L26.5781 34.8672L34.6172 36.5078C35.1094 36.5898 35.5195 36.4258 35.8477 36.0977C36.0938 35.8516 36.2578 35.3594 36.1758 34.9492L34.6172 26.9102L41.3438 22.3984C41.7539 22.1523 42 21.7422 42 21.25ZM32.4023 25.1875C31.9102 25.5156 31.7461 26.0078 31.8281 26.582L33.2227 33.5547L26.25 32.1602C25.6758 31.9961 25.1836 32.2422 24.9375 32.7344L21 38.6406L16.9805 32.7344C16.7344 32.3242 16.3242 32.1602 15.9141 32.1602C15.832 32.1602 15.75 32.1602 15.668 32.1602L8.69531 33.5547L10.0898 26.582C10.1719 26.0898 10.0078 25.5156 9.51562 25.1875L3.60938 21.25L9.51562 17.3125C10.0078 17.0664 10.1719 16.4922 10.0898 16L8.69531 9.02734L15.668 10.4219C16.2422 10.5039 16.7344 10.2578 16.9805 9.84766L21 3.94141L24.9375 9.84766C25.1836 10.2578 25.7578 10.5039 26.25 10.4219L33.2227 9.02734L31.8281 16C31.7461 16.4922 31.9102 17.0664 32.4023 17.3125L38.3086 21.25L32.4023 25.1875Z"/>
</g>
<defs>
<filter id="filter0_i_120_1127" x="0" y="0.0859375" width="42" height="46.1641" filterUnits="userSpaceOnUse" color-interpolation-filters="sRGB">
<feFlood flood-opacity="0" result="BackgroundImageFix"/>
<feBlend mode="normal" in="SourceGraphic" in2="BackgroundImageFix" result="shape"/>
<feColorMatrix in="SourceAlpha" type="matrix" values="0 0 0 0 0 0 0 0 0 0 0 0 0 0 0 0 0 0 127 0" result="hardAlpha"/>
<feOffset dy="4"/>
<feGaussianBlur stdDeviation="2"/>
<feComposite in2="hardAlpha" operator="arithmetic" k2="-1" k3="1"/>
<feColorMatrix type="matrix" values="0 0 0 0 1 0 0 0 0 1 0 0 0 0 1 0 0 0 0.25 0"/>
<feBlend mode="normal" in2="shape" result="effect1_innerShadow_120_1127"/>
</filter>
</defs>
</svg>
