<svg viewBox="0 0 26 22" xmlns="http://www.w3.org/2000/svg">
<path d="M12.0742 7.1875C11.9102 7.1875 11.8281 7.31055 11.8281 7.47461L12.1152 15.5137C12.1152 15.6367 12.2383 15.7188 12.3613 15.7188H13.2227C13.3457 15.7188 13.4688 15.6367 13.4688 15.5137L13.7559 7.47461C13.7559 7.31055 13.6738 7.1875 13.5098 7.1875H12.0742ZM12.8125 16.5391C12.1562 16.5391 11.6641 17.0723 11.6641 17.6875C11.6641 18.3438 12.1562 18.8359 12.8125 18.8359C13.4277 18.8359 13.9609 18.3438 13.9609 17.6875C13.9609 17.0723 13.4277 16.5391 12.8125 16.5391ZM24.3379 18.6719L14.4941 1.60938C13.7559 0.296875 11.8281 0.296875 11.0898 1.60938L1.24609 18.6719C0.507812 19.9844 1.45117 21.625 2.96875 21.625H22.6562C24.1328 21.625 25.1172 19.9844 24.3379 18.6719ZM22.6562 20.3125H2.96875C2.43555 20.3125 2.14844 19.7793 2.39453 19.3281L12.2383 2.26562C12.4844 1.85547 13.0996 1.85547 13.3457 2.26562L23.1895 19.3281C23.4766 19.7793 23.1484 20.3125 22.6562 20.3125Z"/>
</svg>
